<svg xmlns="http://www.w3.org/2000/svg" xmlns:xlink="http://www.w3.org/1999/xlink" viewBox="0 0 239.5 239.51"><defs><style>.cls-1{fill:#fff;}.cls-2{fill:url(#linear-gradient);}.cls-3{fill:url(#linear-gradient-2);}.cls-4{fill:url(#linear-gradient-3);}.cls-5{fill:url(#linear-gradient-4);}.cls-6{fill:url(#linear-gradient-5);}.cls-7{fill:url(#linear-gradient-6);}.cls-8{fill:url(#linear-gradient-7);}</style><linearGradient id="linear-gradient" x1="119.75" y1="230.38" x2="119.75" y2="109.88" gradientUnits="userSpaceOnUse"><stop offset="0" stop-color="#f76695"/><stop offset="1" stop-color="#fba7b1"/></linearGradient><linearGradient id="linear-gradient-2" x1="121.21" y1="96.38" x2="121.21" y2="61.32" xlink:href="#linear-gradient"/><linearGradient id="linear-gradient-3" x1="102.99" y1="96.38" x2="102.99" y2="61.32" xlink:href="#linear-gradient"/><linearGradient id="linear-gradient-4" x1="171.92" y1="140.5" x2="171.92" y2="158.48" gradientUnits="userSpaceOnUse"><stop offset="0" stop-color="#155c41"/><stop offset="0.66" stop-color="#66bf85"/><stop offset="1" stop-color="#8dd1a8"/></linearGradient><linearGradient id="linear-gradient-5" x1="175.28" y1="97.48" x2="175.28" y2="147.58" xlink:href="#linear-gradient-4"/><linearGradient id="linear-gradient-6" x1="64.16" y1="97.99" x2="64.16" y2="145.29" xlink:href="#linear-gradient-4"/><linearGradient id="linear-gradient-7" x1="65.66" y1="144.11" x2="65.66" y2="159.88" xlink:href="#linear-gradient-4"/></defs><title>Ресурс 1xhdpi</title><g id="Слой_2" data-name="Слой 2"><g id="Layer_1" data-name="Layer 1"><path class="cls-1" d="M64.2,44.58a114,114,0,0,1,12.41-5.93,65.38,65.38,0,0,1,7-14,88.4,88.4,0,0,1,8.77-11.22,110,110,0,0,0-82,96.64A115.05,115.05,0,0,1,64.2,44.58Z"/><path class="cls-1" d="M229.07,110.05A109.9,109.9,0,0,0,119.75,10q-4.77,0-9.43.41a87.51,87.51,0,0,0-18.44,20C91,31.67,90.25,33,89.52,34.29a115.1,115.1,0,0,1,69.26,2.78,39.12,39.12,0,0,0,8.73-6,5,5,0,0,1,5.73-.84h0a5,5,0,0,1,1.17,8.06,41.26,41.26,0,0,1-4.36,3.59A115.08,115.08,0,0,1,229.07,110.05Z"/><path class="cls-1" d="M170.06,41.85a71.58,71.58,0,0,1-20,9.63c-.5.16-1,.32-1.43.49,4.8,7.48,5.22,16.16,1.14,24.58a35.9,35.9,0,0,1-6.65,9.33,57.24,57.24,0,0,1-8.69,14c-9.67,13.55-25,20.54-41.34,15.55a55.22,55.22,0,0,1,3.35,19c0,24.93-17,42.34-41.26,42.34s-41.26-17.41-41.26-42.34c0-26.65,18.51-48.32,41.26-48.32a35.23,35.23,0,0,1,10.58,1.62c-4-13.2-3.23-28.85-1.57-43.2a115.05,115.05,0,0,0-53.77,65.5c-.28,3.19-.43,6.41-.43,9.67A109.77,109.77,0,0,0,226.75,144.3a110.57,110.57,0,0,0,2.75-24.55c0-3.27-.15-6.5-.43-9.7A115.08,115.08,0,0,0,170.06,41.85ZM143.14,189.31c-8.49,5.44-16.9,8.16-25.15,8.16s-16.45-2.76-24.4-8.26a5,5,0,1,1,5.7-8.22c12.38,8.58,25,8.54,38.46-.1a5,5,0,0,1,5.39,8.42ZM184,176.82c-24.29,0-41.26-17.41-41.26-42.34,0-26.65,18.51-48.32,41.26-48.32s41.25,21.67,41.25,48.32C225.23,159.41,208.27,176.82,184,176.82Z"/><path class="cls-2" d="M170.06,41.85a71.58,71.58,0,0,1-20,9.63c-.5.16-1,.32-1.43.49,4.8,7.48,5.22,16.16,1.14,24.58a35.9,35.9,0,0,1-6.65,9.33,57.24,57.24,0,0,1-8.69,14c-9.67,13.55-25,20.54-41.34,15.55a55.22,55.22,0,0,1,3.35,19c0,24.93-17,42.34-41.26,42.34s-41.26-17.41-41.26-42.34c0-26.65,18.51-48.32,41.26-48.32a35.23,35.23,0,0,1,10.58,1.62c-4-13.2-3.23-28.85-1.57-43.2a115.05,115.05,0,0,0-53.77,65.5c-.28,3.19-.43,6.41-.43,9.67A109.77,109.77,0,0,0,226.75,144.3a110.57,110.57,0,0,0,2.75-24.55c0-3.27-.15-6.5-.43-9.7A115.08,115.08,0,0,0,170.06,41.85ZM143.14,189.31c-8.49,5.44-16.9,8.16-25.15,8.16s-16.45-2.76-24.4-8.26a5,5,0,1,1,5.7-8.22c12.38,8.58,25,8.54,38.46-.1a5,5,0,0,1,5.39,8.42ZM184,176.82c-24.29,0-41.26-17.41-41.26-42.34,0-26.65,18.51-48.32,41.26-48.32s41.25,21.67,41.25,48.32C225.23,159.41,208.27,176.82,184,176.82Z"/><path class="cls-1" d="M89.52,34.29c-8,14.51-7.84,28.56.49,41.81,7.18,11.44,16.94,13.38,23.84,13,11.16-.62,22.49-7.73,26.93-16.91,1.85-3.81,3.17-9.59-1-15.48a.53.53,0,0,1-.06-.1,13.55,13.55,0,0,0-4.69,6.06,5,5,0,1,1-9.44-3.26C127.5,53.87,132.78,46.56,147,42a72.09,72.09,0,0,0,11.79-4.89,115.1,115.1,0,0,0-69.26-2.78Z"/><path class="cls-3" d="M89.52,34.29c-8,14.51-7.84,28.56.49,41.81,7.18,11.44,16.94,13.38,23.84,13,11.16-.62,22.49-7.73,26.93-16.91,1.85-3.81,3.17-9.59-1-15.48a.53.53,0,0,1-.06-.1,13.55,13.55,0,0,0-4.69,6.06,5,5,0,1,1-9.44-3.26C127.5,53.87,132.78,46.56,147,42a72.09,72.09,0,0,0,11.79-4.89,115.1,115.1,0,0,0-69.26-2.78Z"/><path class="cls-1" d="M65.77,87.78c12.3,3.82,22.37,14.16,27.33,27.65,16.38,5,31.67-2,41.34-15.55a57.24,57.24,0,0,0,8.69-14,44.49,44.49,0,0,1-28.73,13.2c-.73,0-1.45.06-2.17.06-12.63,0-23.47-6.23-30.69-17.72C73,67.87,71.39,53.3,76.61,38.65A114,114,0,0,0,64.2,44.58C62.54,58.93,61.78,74.58,65.77,87.78Z"/><path class="cls-4" d="M65.77,87.78c12.3,3.82,22.37,14.16,27.33,27.65,16.38,5,31.67-2,41.34-15.55a57.24,57.24,0,0,0,8.69-14,44.49,44.49,0,0,1-28.73,13.2c-.73,0-1.45.06-2.17.06-12.63,0-23.47-6.23-30.69-17.72C73,67.87,71.39,53.3,76.61,38.65A114,114,0,0,0,64.2,44.58C62.54,58.93,61.78,74.58,65.77,87.78Z"/><path class="cls-1" d="M184,96.16a26.56,26.56,0,0,0-13.74,3.9,25.19,25.19,0,0,1,7.31-.27c7.75.84,14.63,5.21,19.36,12.29a37.14,37.14,0,0,1,5.68,24.67c-1,8.92-4.7,16.13-10.81,20.88a28.3,28.3,0,0,1-17.48,5.71,33.65,33.65,0,0,1-7.36-.82,33.17,33.17,0,0,0,17,4.3c19,0,31.25-12.69,31.25-32.34C215.23,113.35,201.21,96.16,184,96.16Z"/><path class="cls-1" d="M188.71,153.68c.51-.4,1-.83,1.46-1.27a39.73,39.73,0,0,0-36.5-8.94,32.42,32.42,0,0,0,3,8.29,24.66,24.66,0,0,0,14.5,6.41A24.08,24.08,0,0,0,188.71,153.68Zm-24.94.06a5.74,5.74,0,1,1,5.74-5.74A5.74,5.74,0,0,1,163.77,153.74Z"/><path class="cls-5" d="M188.71,153.68c.51-.4,1-.83,1.46-1.27a39.73,39.73,0,0,0-36.5-8.94,32.42,32.42,0,0,0,3,8.29,24.66,24.66,0,0,0,14.5,6.41A24.08,24.08,0,0,0,188.71,153.68Zm-24.94.06a5.74,5.74,0,1,1,5.74-5.74A5.74,5.74,0,0,1,163.77,153.74Z"/><path class="cls-1" d="M190.17,152.41c4.14-3.88,6.72-9.43,7.45-16.2a32.14,32.14,0,0,0-4.87-21.35c-3.89-5.84-9.49-9.42-15.75-10.1a19.37,19.37,0,0,0-2.15-.12,22.25,22.25,0,0,0-15.4,6.6c-.27.26-.53.53-.79.8a44.16,44.16,0,0,0-5.94,22.44,41.52,41.52,0,0,0,.95,9A39.73,39.73,0,0,1,190.17,152.41Zm-10.3-37.58a9.59,9.59,0,1,1-9.59,9.59A9.59,9.59,0,0,1,179.87,114.83Z"/><path class="cls-6" d="M190.17,152.41c4.14-3.88,6.72-9.43,7.45-16.2a32.14,32.14,0,0,0-4.87-21.35c-3.89-5.84-9.49-9.42-15.75-10.1a19.37,19.37,0,0,0-2.15-.12,22.25,22.25,0,0,0-15.4,6.6c-.27.26-.53.53-.79.8a44.16,44.16,0,0,0-5.94,22.44,41.52,41.52,0,0,0,.95,9A39.73,39.73,0,0,1,190.17,152.41Zm-10.3-37.58a9.59,9.59,0,1,1-9.59,9.59A9.59,9.59,0,0,1,179.87,114.83Z"/><path class="cls-1" d="M179.87,134a9.59,9.59,0,1,0-9.59-9.59A9.59,9.59,0,0,0,179.87,134Z"/><path class="cls-1" d="M163.77,142.26a5.74,5.74,0,1,0,5.74,5.74A5.74,5.74,0,0,0,163.77,142.26Z"/><path class="cls-1" d="M62.62,164.67c-17.19-1.86-27.44-15-25.52-32.63a37.16,37.16,0,0,1,10.84-22.87c6.15-5.91,13.8-8.69,21.56-7.85.56.06,1.12.14,1.67.24a26.87,26.87,0,0,0-16-5.4c-17.23,0-31.26,17.19-31.26,38.32,0,19.65,12.27,32.34,31.26,32.34a35.71,35.71,0,0,0,12-1.95l-.69,0A33.47,33.47,0,0,1,62.62,164.67Z"/><path class="cls-1" d="M69,106.29a19.55,19.55,0,0,0-2.16-.12,22.21,22.21,0,0,0-15.39,6.6,32.15,32.15,0,0,0-9.34,19.81c-.9,8.23,1.26,14.55,5.07,19,1.14-.54,2.3-1,3.48-1.51a5.74,5.74,0,1,1,10.84-3.17,46.86,46.86,0,0,1,22.72,1,38.6,38.6,0,0,0,2.27-13.48A43.91,43.91,0,0,0,79.85,111,20.52,20.52,0,0,0,69,106.29Zm2.87,29.26a9.6,9.6,0,1,1,9.59-9.6A9.6,9.6,0,0,1,71.83,135.55Z"/><path class="cls-7" d="M69,106.29a19.55,19.55,0,0,0-2.16-.12,22.21,22.21,0,0,0-15.39,6.6,32.15,32.15,0,0,0-9.34,19.81c-.9,8.23,1.26,14.55,5.07,19,1.14-.54,2.3-1,3.48-1.51a5.74,5.74,0,1,1,10.84-3.17,46.86,46.86,0,0,1,22.72,1,38.6,38.6,0,0,0,2.27-13.48A43.91,43.91,0,0,0,79.85,111,20.52,20.52,0,0,0,69,106.29Zm2.87,29.26a9.6,9.6,0,1,1,9.59-9.6A9.6,9.6,0,0,1,71.83,135.55Z"/><path class="cls-1" d="M61.46,146.93q0,.3,0,.6a5.74,5.74,0,0,1-10.87,2.57c-1.18.47-2.34,1-3.48,1.51a24.33,24.33,0,0,0,16,8.09,24.49,24.49,0,0,0,16.81-4,29.63,29.63,0,0,0,4.21-7.7A46.86,46.86,0,0,0,61.46,146.93Z"/><path class="cls-8" d="M61.46,146.93q0,.3,0,.6a5.74,5.74,0,0,1-10.87,2.57c-1.18.47-2.34,1-3.48,1.51a24.33,24.33,0,0,0,16,8.09,24.49,24.49,0,0,0,16.81-4,29.63,29.63,0,0,0,4.21-7.7A46.86,46.86,0,0,0,61.46,146.93Z"/><circle class="cls-1" cx="71.83" cy="125.95" r="9.59"/><path class="cls-1" d="M55.75,153.27a5.74,5.74,0,0,0,5.74-5.74q0-.3,0-.6a5.74,5.74,0,1,0-5.71,6.34Z"/><path d="M184,86.16c-22.75,0-41.26,21.67-41.26,48.32,0,24.93,17,42.34,41.26,42.34s41.25-17.41,41.25-42.34C225.23,107.83,206.73,86.16,184,86.16Zm-30.31,57.31a41.52,41.52,0,0,1-.95-9A44.16,44.16,0,0,1,158.66,112c.26-.27.52-.54.79-.8a22.25,22.25,0,0,1,15.4-6.6,19.37,19.37,0,0,1,2.15.12c6.26.68,11.86,4.26,15.75,10.1a32.14,32.14,0,0,1,4.87,21.35c-.73,6.77-3.31,12.32-7.45,16.2-.47.44-.95.87-1.46,1.27a24.08,24.08,0,0,1-17.51,4.49,24.66,24.66,0,0,1-14.5-6.41A32.42,32.42,0,0,1,153.67,143.47ZM184,166.82a33.17,33.17,0,0,1-17-4.3,33.65,33.65,0,0,0,7.36.82,28.3,28.3,0,0,0,17.48-5.71c6.11-4.75,9.85-12,10.81-20.88a37.14,37.14,0,0,0-5.68-24.67c-4.73-7.08-11.61-11.45-19.36-12.29a25.19,25.19,0,0,0-7.31.27A26.56,26.56,0,0,1,184,96.16c17.23,0,31.25,17.19,31.25,38.32C215.23,154.13,203,166.82,184,166.82Z"/><path d="M65.77,87.78a35.23,35.23,0,0,0-10.58-1.62c-22.75,0-41.26,21.67-41.26,48.32,0,24.93,17,42.34,41.26,42.34s41.26-17.41,41.26-42.34a55.22,55.22,0,0,0-3.35-19C88.14,101.94,78.07,91.6,65.77,87.78Zm-10.58,79c-19,0-31.26-12.69-31.26-32.34,0-21.13,14-38.32,31.26-38.32a26.87,26.87,0,0,1,16,5.4c-.55-.1-1.11-.18-1.67-.24-7.76-.84-15.41,1.94-21.56,7.85A37.16,37.16,0,0,0,37.1,132c-1.92,17.65,8.33,30.77,25.52,32.63a33.47,33.47,0,0,0,3.84.22l.69,0A35.71,35.71,0,0,1,55.19,166.82Zm29-18.86a29.63,29.63,0,0,1-4.21,7.7,24.49,24.49,0,0,1-16.81,4,24.33,24.33,0,0,1-16-8.09c-3.81-4.48-6-10.8-5.07-19a32.15,32.15,0,0,1,9.34-19.81,22.21,22.21,0,0,1,15.39-6.6,19.55,19.55,0,0,1,2.16.12A20.52,20.52,0,0,1,79.85,111a43.91,43.91,0,0,1,6.6,23.51A38.6,38.6,0,0,1,84.18,148Z"/><path d="M137.75,180.89c-13.5,8.64-26.08,8.68-38.46.1a5,5,0,1,0-5.7,8.22q11.93,8.25,24.4,8.26c8.25,0,16.66-2.72,25.15-8.16a5,5,0,0,0-5.39-8.42Z"/><path d="M119.75,0A119.84,119.84,0,1,0,239.5,119.75,119.89,119.89,0,0,0,119.75,0Zm107,144.3A109.75,109.75,0,0,1,10,119.75c0-3.26.15-6.48.43-9.67a110,110,0,0,1,82-96.64,88.4,88.4,0,0,0-8.77,11.22,65.38,65.38,0,0,0-7,14C71.39,53.3,73,67.87,81.54,81.42c7.22,11.49,18.06,17.72,30.69,17.72.72,0,1.44,0,2.17-.06a44.49,44.49,0,0,0,28.73-13.2,35.9,35.9,0,0,0,6.65-9.33c4.08-8.42,3.66-17.1-1.14-24.58.47-.17.93-.33,1.43-.49a71.58,71.58,0,0,0,20-9.63,41.26,41.26,0,0,0,4.36-3.59,5,5,0,0,0-1.17-8.06h0a5,5,0,0,0-5.73.84,39.12,39.12,0,0,1-8.73,6A72.09,72.09,0,0,1,147,42c-14.21,4.6-19.49,11.91-21.38,17.45a5,5,0,1,0,9.44,3.26,13.55,13.55,0,0,1,4.69-6.06.53.53,0,0,0,.06.1c4.15,5.89,2.83,11.67,1,15.48C136.34,81.37,125,88.48,113.85,89.1c-6.9.38-16.66-1.56-23.84-13-8.33-13.25-8.49-27.3-.49-41.81.73-1.31,1.51-2.62,2.36-3.93a87.51,87.51,0,0,1,18.44-19.95Q115,10,119.75,10A109.9,109.9,0,0,1,229.07,110.05c.28,3.2.43,6.43.43,9.7A110.57,110.57,0,0,1,226.75,144.3Z"/></g></g></svg>