<svg xmlns="http://www.w3.org/2000/svg" xmlns:xlink="http://www.w3.org/1999/xlink" viewBox="0 0 239.5 239.51"><defs><style>.cls-1{fill:#fff;}.cls-2{fill:url(#linear-gradient);}.cls-3{fill:url(#linear-gradient-2);}.cls-4{fill:url(#linear-gradient-3);}</style><linearGradient id="linear-gradient" x1="119.75" y1="217.51" x2="119.75" y2="52" gradientUnits="userSpaceOnUse"><stop offset="0" stop-color="#eb2d00"/><stop offset="1" stop-color="#ff8700"/></linearGradient><linearGradient id="linear-gradient-2" x1="62.44" y1="117.2" x2="62.44" y2="152.63" gradientUnits="userSpaceOnUse"><stop offset="0" stop-color="#4c8d62"/><stop offset="0.66" stop-color="#66bf85"/><stop offset="1" stop-color="#8dd1a8"/></linearGradient><linearGradient id="linear-gradient-3" x1="177.06" y1="117.2" x2="177.06" y2="152.63" xlink:href="#linear-gradient-2"/></defs><title>Ресурс 2xhdpi</title><g id="Слой_2" data-name="Слой 2"><g id="Layer_1" data-name="Layer 1"><path class="cls-1" d="M43.81,55a4,4,0,0,1,.94-1.43,24.35,24.35,0,0,1,6.59-4.67,114.73,114.73,0,0,1,135.32-1.1,22.41,22.41,0,0,1,9.52,5.77,4,4,0,0,1,1.2,2.95,114.8,114.8,0,0,1,31,47.33,109.76,109.76,0,0,0-217.18,0A114.84,114.84,0,0,1,43.81,55Z"/><path class="cls-1" d="M197.38,56.47a4,4,0,0,1-6.78,2.78c-5-4.86-9.88-5.44-15.84-1.88a4,4,0,0,1-4.1-6.87c5.5-3.29,10.9-4.18,16-2.75a114.73,114.73,0,0,0-135.32,1.1c5.93-2.8,12.36-2.27,18.92,1.65a4,4,0,1,1-4.1,6.87c-6-3.56-10.84-3-15.84,1.88a4,4,0,0,1-2.78,1.14A4,4,0,0,1,43.81,55a114.84,114.84,0,0,0-32.65,48.86A109.77,109.77,0,0,0,226.75,144.3a110.67,110.67,0,0,0,1.59-40.5A114.8,114.8,0,0,0,197.38,56.47ZM136,175.4a4,4,0,0,1,5,2.53l2,6a4,4,0,0,1-2.53,5.06,3.92,3.92,0,0,1-1.26.21,4,4,0,0,1-3.79-2.74l-2-6A4,4,0,0,1,136,175.4Zm-39.53,8.53,2-6a4,4,0,1,1,7.58,2.53l-2,6a4,4,0,0,1-3.79,2.74A3.92,3.92,0,0,1,99,189,4,4,0,0,1,96.46,183.93ZM44,73.78c4.49-6.78,9.67-8.2,13.23-8.2,8.42,0,12.38,8,15.57,14.38h0c6.37,12.84,5.83,30.53,5.4,44.75-.12,4.06-.24,7.89-.19,11.26.13,9.09-4.37,19.15-14.54,19.75-1.78.1-3.51.15-5.23.15-2,0-3.93-.07-5.89-.2l-.51,0h-.12c-6-.47-11.13-3.9-13.17-8.74C32.24,132,32.54,91.06,44,73.78ZM202.69,175c-.17.47-4.19,11.53-17.53,18.85-8.6,4.71-34.25,11.9-54.25,17.11a44.56,44.56,0,0,1-22.32,0c-20-5.21-45.65-12.4-54.25-17.11C41,186.5,37,175.44,36.81,175a4,4,0,0,1,7.55-2.66c.12.33,3.29,8.71,13.83,14.49,6.06,3.32,25.16,9.3,52.42,16.39a36.51,36.51,0,0,0,18.28,0c27.26-7.09,46.36-13.07,52.42-16.39,10.54-5.78,13.71-14.16,13.84-14.51a4,4,0,0,1,7.54,2.68ZM201,146.89c-2.05,4.84-7.22,8.27-13.19,8.74h-.1l-.51,0c-2,.13-3.91.2-5.89.2-1.72,0-3.45,0-5.23-.15-10.17-.6-14.67-10.66-14.54-19.75.05-3.37-.07-7.2-.19-11.26-.43-14.21-1-31.91,5.4-44.75h0c3.19-6.4,7.15-14.38,15.57-14.38,3.56,0,8.74,1.42,13.23,8.2C207,91.06,207.26,132,201,146.89Z"/><path class="cls-2" d="M197.38,56.47a4,4,0,0,1-6.78,2.78c-5-4.86-9.88-5.44-15.84-1.88a4,4,0,0,1-4.1-6.87c5.5-3.29,10.9-4.18,16-2.75a114.73,114.73,0,0,0-135.32,1.1c5.93-2.8,12.36-2.27,18.92,1.65a4,4,0,1,1-4.1,6.87c-6-3.56-10.84-3-15.84,1.88a4,4,0,0,1-2.78,1.14A4,4,0,0,1,43.81,55a114.84,114.84,0,0,0-32.65,48.86A109.77,109.77,0,0,0,226.75,144.3a110.67,110.67,0,0,0,1.59-40.5A114.8,114.8,0,0,0,197.38,56.47ZM136,175.4a4,4,0,0,1,5,2.53l2,6a4,4,0,0,1-2.53,5.06,3.92,3.92,0,0,1-1.26.21,4,4,0,0,1-3.79-2.74l-2-6A4,4,0,0,1,136,175.4Zm-39.53,8.53,2-6a4,4,0,1,1,7.58,2.53l-2,6a4,4,0,0,1-3.79,2.74A3.92,3.92,0,0,1,99,189,4,4,0,0,1,96.46,183.93ZM44,73.78c4.49-6.78,9.67-8.2,13.23-8.2,8.42,0,12.38,8,15.57,14.38h0c6.37,12.84,5.83,30.53,5.4,44.75-.12,4.06-.24,7.89-.19,11.26.13,9.09-4.37,19.15-14.54,19.75-1.78.1-3.51.15-5.23.15-2,0-3.93-.07-5.89-.2l-.51,0h-.12c-6-.47-11.13-3.9-13.17-8.74C32.24,132,32.54,91.06,44,73.78ZM202.69,175c-.17.47-4.19,11.53-17.53,18.85-8.6,4.71-34.25,11.9-54.25,17.11a44.56,44.56,0,0,1-22.32,0c-20-5.21-45.65-12.4-54.25-17.11C41,186.5,37,175.44,36.81,175a4,4,0,0,1,7.55-2.66c.12.33,3.29,8.71,13.83,14.49,6.06,3.32,25.16,9.3,52.42,16.39a36.51,36.51,0,0,0,18.28,0c27.26-7.09,46.36-13.07,52.42-16.39,10.54-5.78,13.71-14.16,13.84-14.51a4,4,0,0,1,7.54,2.68ZM201,146.89c-2.05,4.84-7.22,8.27-13.19,8.74h-.1l-.51,0c-2,.13-3.91.2-5.89.2-1.72,0-3.45,0-5.23-.15-10.17-.6-14.67-10.66-14.54-19.75.05-3.37-.07-7.2-.19-11.26-.43-14.21-1-31.91,5.4-44.75h0c3.19-6.4,7.15-14.38,15.57-14.38,3.56,0,8.74,1.42,13.23,8.2C207,91.06,207.26,132,201,146.89Z"/><path d="M119.75,0A119.84,119.84,0,1,0,239.5,119.75,119.89,119.89,0,0,0,119.75,0Zm107,144.3a110.67,110.67,0,1,1,2.75-24.55A109.85,109.85,0,0,1,226.75,144.3Z"/><path class="cls-1" d="M51.39,147.53a118.57,118.57,0,0,1-3.62-20.11c-2.55-26.75,3.71-48.94,14-49.56.28,0,.56,0,.85,0-1.69-2.69-3.32-4.28-5.36-4.28-.87,0-3.5,0-6.56,4.62-9.64,14.55-10,53.11-4.75,65.57C46.69,145.63,48.83,147.06,51.39,147.53Z"/><path class="cls-1" d="M62.21,81.74a2.85,2.85,0,0,0-.29,0l-.35,0-.27.07-.38.12-.24.12-.38.2-.22.16-.37.28a2.09,2.09,0,0,0-.22.2c-.12.11-.23.22-.34.34s-.15.17-.22.25-.21.25-.31.39a3.46,3.46,0,0,0-.22.31c-.1.13-.18.27-.27.41L57.9,85l-.07.12c0,.07-.07.16-.11.23l-.09.16c-.07.13-.13.27-.2.41l0,.08c0,.1-.1.21-.14.31l0,.1c-.09.2-.17.41-.25.62l0,.05c0,.1-.07.21-.11.31l0,0c-.09.26-.17.52-.25.79h0l-.09.33h0a26.23,26.23,0,0,0-.9,6.91c0,7.62,3,9.93,6.64,9.93s6.66-2.31,6.66-9.93c0-.81,0-1.58-.1-2.35,0-.08,0-.16,0-.24a.34.34,0,0,1,0-.1A40,40,0,0,0,65.82,84l-.08-.09-.24-.32c-.1-.11-.2-.21-.29-.32L65,83l-.31-.27-.26-.19-.33-.23a2.1,2.1,0,0,0-.26-.13L63.46,82l-.27-.08a2.42,2.42,0,0,0-.36-.1,2.58,2.58,0,0,0-.29,0A1.86,1.86,0,0,0,62.21,81.74Z"/><path d="M68.46,120.69a9.1,9.1,0,0,1-2.28,1.21h0a9.75,9.75,0,0,1-1.17.34l-.17,0a9.35,9.35,0,0,1-1.18.19l-.19,0c-.41,0-.82.06-1.25.06s-.65,0-1,0l-.24,0c-.31,0-.61-.06-.91-.11h0c-.33-.05-.65-.13-1-.21l-.13,0a7.6,7.6,0,0,1-.92-.3h0a8.79,8.79,0,0,1-.94-.43h0a9.11,9.11,0,0,1-2.53-2h0a120.56,120.56,0,0,0,1.09,18.25,88,88,0,0,0,2.91,10.24c1.47,0,2.95,0,4.46-.14,7.09-.41,7-11.19,7-11.65,0-3.55.07-7.46.19-11.61.06-1.83.12-3.72.16-5.65a9.3,9.3,0,0,1-1.84,1.82Z"/><path class="cls-3" d="M68.46,120.69a9.1,9.1,0,0,1-2.28,1.21h0a9.75,9.75,0,0,1-1.17.34l-.17,0a9.35,9.35,0,0,1-1.18.19l-.19,0c-.41,0-.82.06-1.25.06s-.65,0-1,0l-.24,0c-.31,0-.61-.06-.91-.11h0c-.33-.05-.65-.13-1-.21l-.13,0a7.6,7.6,0,0,1-.92-.3h0a8.79,8.79,0,0,1-.94-.43h0a9.11,9.11,0,0,1-2.53-2h0a120.56,120.56,0,0,0,1.09,18.25,88,88,0,0,0,2.91,10.24c1.47,0,2.95,0,4.46-.14,7.09-.41,7-11.19,7-11.65,0-3.55.07-7.46.19-11.61.06-1.83.12-3.72.16-5.65a9.3,9.3,0,0,1-1.84,1.82Z"/><path class="cls-1" d="M182.28,73.58c-2,0-3.67,1.59-5.36,4.28.29,0,.57,0,.85,0,10.25.62,16.51,22.81,14,49.56a118.27,118.27,0,0,1-3.62,20.1c2.59-.47,4.7-1.9,5.48-3.75,5.28-12.46,4.89-51-4.75-65.57C185.78,73.58,183.15,73.58,182.28,73.58Z"/><path class="cls-1" d="M177.3,105.46c3.66,0,6.64-2.31,6.64-9.93a26.23,26.23,0,0,0-.9-6.91h0l-.09-.33h0c-.08-.27-.16-.53-.25-.79l0,0c0-.1-.07-.21-.11-.31l0-.05c-.08-.21-.16-.42-.25-.62l0-.1c0-.1-.09-.21-.14-.31l0-.08c-.07-.14-.13-.28-.2-.41l-.09-.16c0-.07-.07-.16-.11-.23L181.6,85l-.23-.38c-.09-.14-.17-.28-.27-.41a3.46,3.46,0,0,0-.22-.31c-.1-.14-.2-.26-.31-.39s-.14-.17-.22-.25-.22-.23-.34-.34a2.09,2.09,0,0,0-.22-.2l-.37-.28-.22-.16-.38-.2-.24-.12-.38-.12-.27-.07-.35,0a2.85,2.85,0,0,0-.29,0,1.86,1.86,0,0,0-.33,0,2.58,2.58,0,0,0-.29,0,2.42,2.42,0,0,0-.36.1L176,82l-.34.17a2.1,2.1,0,0,0-.26.13l-.33.23-.26.19-.31.27c-.08.08-.16.17-.25.25s-.19.21-.29.32l-.24.32a.31.31,0,0,0-.07.09,39.54,39.54,0,0,0-2.92,8.88.34.34,0,0,1,0,.1c0,.08,0,.16,0,.24-.06.77-.1,1.54-.1,2.35C170.64,103.15,173.62,105.46,177.3,105.46Z"/><path d="M182.44,121.38h0a8.79,8.79,0,0,1-.94.43h0a7.6,7.6,0,0,1-.92.3l-.13,0c-.32.08-.64.16-1,.21h0c-.3.05-.6.08-.91.11l-.24,0c-.32,0-.65,0-1,0s-.84,0-1.25-.06l-.19,0a9.35,9.35,0,0,1-1.18-.19l-.17,0a9.75,9.75,0,0,1-1.17-.34h0a9.1,9.1,0,0,1-2.28-1.21l0,0a9.3,9.3,0,0,1-1.84-1.82c0,1.93.1,3.82.16,5.65.12,4.15.24,8.06.19,11.61,0,.46-.08,11.24,7,11.65,1.51.09,3,.13,4.46.13a87.19,87.19,0,0,0,2.91-10.23A120.56,120.56,0,0,0,185,119.39h0A9.11,9.11,0,0,1,182.44,121.38Z"/><path class="cls-4" d="M182.44,121.38h0a8.79,8.79,0,0,1-.94.43h0a7.6,7.6,0,0,1-.92.3l-.13,0c-.32.08-.64.16-1,.21h0c-.3.05-.6.08-.91.11l-.24,0c-.32,0-.65,0-1,0s-.84,0-1.25-.06l-.19,0a9.35,9.35,0,0,1-1.18-.19l-.17,0a9.75,9.75,0,0,1-1.17-.34h0a9.1,9.1,0,0,1-2.28-1.21l0,0a9.3,9.3,0,0,1-1.84-1.82c0,1.93.1,3.82.16,5.65.12,4.15.24,8.06.19,11.61,0,.46-.08,11.24,7,11.65,1.51.09,3,.13,4.46.13a87.19,87.19,0,0,0,2.91-10.23A120.56,120.56,0,0,0,185,119.39h0A9.11,9.11,0,0,1,182.44,121.38Z"/><path d="M200.26,169.89a4,4,0,0,0-5.11,2.4c-.13.35-3.3,8.73-13.84,14.51-6.06,3.32-25.16,9.3-52.42,16.39a36.51,36.51,0,0,1-18.28,0c-27.26-7.09-46.36-13.07-52.42-16.39C47.65,181,44.48,172.64,44.36,172.31A4,4,0,0,0,36.81,175c.17.47,4.2,11.53,17.53,18.85,8.6,4.71,34.25,11.9,54.25,17.11a44.56,44.56,0,0,0,22.32,0c20-5.21,45.65-12.4,54.25-17.11,13.34-7.32,17.36-18.38,17.53-18.85A4,4,0,0,0,200.26,169.89Z"/><path d="M99,189a3.92,3.92,0,0,0,1.26.21,4,4,0,0,0,3.79-2.74l2-6a4,4,0,1,0-7.58-2.53l-2,6A4,4,0,0,0,99,189Z"/><path d="M135.46,186.46a4,4,0,0,0,3.79,2.74,3.92,3.92,0,0,0,1.26-.21,4,4,0,0,0,2.53-5.06l-2-6a4,4,0,1,0-7.58,2.53Z"/><path d="M43.81,55a4,4,0,0,0,3.73,5.44,4,4,0,0,0,2.78-1.14c5-4.86,9.88-5.44,15.84-1.88a4,4,0,1,0,4.1-6.87c-6.56-3.92-13-4.45-18.92-1.65a24.35,24.35,0,0,0-6.59,4.67A4,4,0,0,0,43.81,55Z"/><path d="M186.66,47.75c-5.1-1.43-10.5-.54-16,2.75a4,4,0,0,0,4.1,6.87c6-3.56,10.84-3,15.84,1.88a4,4,0,0,0,5.58-5.73A22.41,22.41,0,0,0,186.66,47.75Z"/><path d="M51.71,155.63h.12l.51,0c2,.13,3.91.2,5.89.2,1.72,0,3.45,0,5.23-.15C73.63,155.13,78.13,145.07,78,136c0-3.37.07-7.2.19-11.26.43-14.22,1-31.91-5.4-44.75h0c-3.19-6.4-7.15-14.38-15.57-14.38-3.56,0-8.74,1.42-13.23,8.2C32.54,91.06,32.24,132,38.54,146.89,40.58,151.73,45.76,155.16,51.71,155.63Zm18.64-36.8c0,1.93-.1,3.82-.16,5.65-.12,4.15-.24,8.06-.19,11.61,0,.46.08,11.24-7,11.65-1.51.09-3,.13-4.46.14a88,88,0,0,1-2.91-10.24,120.56,120.56,0,0,1-1.09-18.25h0a9.11,9.11,0,0,0,2.53,2h0a8.79,8.79,0,0,0,.94.43h0a7.6,7.6,0,0,0,.92.3l.13,0c.32.08.64.16,1,.21h0c.3.05.6.08.91.11l.24,0c.32,0,.65,0,1,0s.84,0,1.25-.06l.19,0a9.35,9.35,0,0,0,1.18-.19l.17,0a9.75,9.75,0,0,0,1.17-.34h0a9.1,9.1,0,0,0,2.28-1.21l.05,0A9.3,9.3,0,0,0,70.35,118.83ZM63.19,81.91l.27.08.34.17a2.1,2.1,0,0,1,.26.13l.33.23.26.19L65,83l.25.25c.09.11.19.21.29.32l.24.32.08.09a40,40,0,0,1,2.91,8.88.34.34,0,0,0,0,.1c0,.08,0,.16,0,.24.06.77.1,1.54.1,2.35,0,7.62-3,9.93-6.66,9.93s-6.64-2.31-6.64-9.93a26.23,26.23,0,0,1,.9-6.91h0l.09-.33h0c.08-.27.16-.53.25-.79l0,0c0-.1.07-.21.11-.31l0-.05c.08-.21.16-.42.25-.62l0-.1c0-.1.09-.21.14-.31l0-.08c.07-.14.13-.28.2-.41l.09-.16c0-.07.07-.16.11-.23L57.9,85l.23-.38c.09-.14.17-.28.27-.41a3.46,3.46,0,0,1,.22-.31c.1-.14.2-.26.31-.39s.14-.17.22-.25.22-.23.34-.34a2.09,2.09,0,0,1,.22-.2l.37-.28.22-.16.38-.2.24-.12.38-.12.27-.07.35,0a2.85,2.85,0,0,1,.29,0,1.86,1.86,0,0,1,.33,0,2.58,2.58,0,0,1,.29,0A2.42,2.42,0,0,1,63.19,81.91ZM50.66,78.2c3.06-4.62,5.69-4.62,6.56-4.62,2,0,3.67,1.59,5.36,4.28-.29,0-.57,0-.85,0-10.25.62-16.51,22.81-14,49.56a118.57,118.57,0,0,0,3.62,20.11c-2.56-.47-4.7-1.9-5.48-3.76C40.63,131.31,41,92.75,50.66,78.2Z"/><path d="M182.28,65.58c-8.42,0-12.38,8-15.57,14.38h0c-6.37,12.84-5.83,30.54-5.4,44.75.12,4.06.24,7.89.19,11.26-.13,9.09,4.37,19.15,14.54,19.75,1.78.1,3.51.15,5.23.15,2,0,3.93-.07,5.89-.2l.51,0h.1c6-.47,11.14-3.9,13.19-8.74,6.3-14.89,6-55.83-5.45-73.11C191,67,185.84,65.58,182.28,65.58Zm-11.54,27.6c0-.08,0-.16,0-.24a.34.34,0,0,0,0-.1A39.54,39.54,0,0,1,173.69,84a.31.31,0,0,1,.07-.09l.24-.32c.1-.11.2-.21.29-.32s.17-.17.25-.25l.31-.27.26-.19.33-.23a2.1,2.1,0,0,1,.26-.13L176,82l.27-.08a2.42,2.42,0,0,1,.36-.1,2.58,2.58,0,0,1,.29,0,1.86,1.86,0,0,1,.33,0,2.85,2.85,0,0,1,.29,0l.35,0,.27.07.38.12.24.12.38.2.22.16.37.28a2.09,2.09,0,0,1,.22.2c.12.11.23.22.34.34s.15.17.22.25.21.25.31.39a3.46,3.46,0,0,1,.22.31c.1.13.18.27.27.41l.23.38.07.12c0,.07.07.16.11.23l.09.16c.07.13.13.27.2.41l0,.08c.05.1.1.21.14.31l0,.1c.09.2.17.41.25.62l0,.05c0,.1.07.21.11.31l0,0c.09.26.17.52.25.79h0l.09.33h0a26.23,26.23,0,0,1,.9,6.91c0,7.62-3,9.93-6.64,9.93s-6.66-2.31-6.66-9.93C170.64,94.72,170.68,94,170.74,93.18Zm13.14,44.46A87.19,87.19,0,0,1,181,147.87c-1.47,0-2.95,0-4.46-.13-7.09-.41-7-11.19-7-11.65.05-3.55-.07-7.46-.19-11.61-.06-1.83-.12-3.72-.16-5.65a9.3,9.3,0,0,0,1.84,1.82l0,0a9.1,9.1,0,0,0,2.28,1.21h0a9.75,9.75,0,0,0,1.17.34l.17,0a9.35,9.35,0,0,0,1.18.19l.19,0c.41,0,.82.06,1.25.06s.65,0,1,0l.24,0c.31,0,.61-.06.91-.11h0c.33-.05.65-.13,1-.21l.13,0a7.6,7.6,0,0,0,.92-.3h0a8.79,8.79,0,0,0,.94-.43h0a9.11,9.11,0,0,0,2.53-2h0A120.56,120.56,0,0,1,183.88,137.64Zm9.71,6.13c-.78,1.85-2.89,3.28-5.48,3.75a118.27,118.27,0,0,0,3.62-20.1c2.55-26.75-3.71-48.94-14-49.56-.28,0-.56,0-.85,0,1.69-2.69,3.32-4.28,5.36-4.28.87,0,3.5,0,6.56,4.62C198.48,92.75,198.87,131.31,193.59,143.77Z"/></g></g></svg>