<svg xmlns="http://www.w3.org/2000/svg" xmlns:xlink="http://www.w3.org/1999/xlink" viewBox="0 0 237.5 237.51"><defs><style>.cls-1{fill:#fff;}.cls-2{fill:url(#linear-gradient);}.cls-3{fill:none;}.cls-4{fill:url(#linear-gradient-2);}.cls-5{fill:url(#linear-gradient-3);}.cls-6{fill:url(#linear-gradient-4);}.cls-7{fill:url(#linear-gradient-5);}.cls-8{fill:url(#linear-gradient-6);}</style><linearGradient id="linear-gradient" x1="118.75" y1="215.15" x2="118.75" y2="25.68" gradientUnits="userSpaceOnUse"><stop offset="0" stop-color="#bf1c00"/><stop offset="1" stop-color="#ff5200"/></linearGradient><linearGradient id="linear-gradient-2" x1="65.75" y1="107.07" x2="65.75" y2="73.04" gradientUnits="userSpaceOnUse"><stop offset="0" stop-color="#fb9937"/><stop offset="1" stop-color="#fcd657"/></linearGradient><linearGradient id="linear-gradient-3" x1="118.31" y1="228.4" x2="118.31" y2="143.73" xlink:href="#linear-gradient-2"/><linearGradient id="linear-gradient-4" x1="171.82" y1="107.07" x2="171.82" y2="73.04" xlink:href="#linear-gradient-2"/><linearGradient id="linear-gradient-5" x1="90.28" y1="188.26" x2="118.75" y2="188.26" gradientUnits="userSpaceOnUse"><stop offset="0.06" stop-color="#ee273e"/><stop offset="1" stop-color="#f95a51"/></linearGradient><linearGradient id="linear-gradient-6" x1="118.75" y1="188.26" x2="145.41" y2="188.26" xlink:href="#linear-gradient-5"/></defs><title>Ресурс 3xhdpi</title><g id="Слой_2" data-name="Слой 2"><g id="Layer_1" data-name="Layer 1"><path class="cls-1" d="M233.5,118.75a118.18,118.18,0,0,1-.69,12.69A114.75,114.75,0,0,1,118.75,233.51q-2.27,0-4.5-.09a114.08,114.08,0,0,1-49.43-13.34c-2.22-1.18-4.39-2.44-6.52-3.76a115.68,115.68,0,0,1-26.37-22.53,114.38,114.38,0,0,1-25-49.38,113.2,113.2,0,0,1-2.19-13A117.81,117.81,0,0,1,4,118.75,114.45,114.45,0,0,1,12.11,76.3l.39-1A114,114,0,0,1,30.7,45.18c.29-.35.58-.7.89-1A114.72,114.72,0,0,1,233.5,118.75Z"/><path class="cls-2" d="M232.81,131.44A114.75,114.75,0,0,1,118.75,233.51q-2.27,0-4.5-.09a114.08,114.08,0,0,1-49.43-13.34c-2.22-1.18-4.39-2.44-6.52-3.76a115.68,115.68,0,0,1-26.37-22.53,114.38,114.38,0,0,1-25-49.38,113.2,113.2,0,0,1-2.19-13,113.57,113.57,0,0,1,7.42-29.86l.39-1A112.82,112.82,0,0,1,23.82,79.55a111.44,111.44,0,0,1,6.88-9.11c.29-.35.58-.7.89-1a114.7,114.7,0,0,1,201.22,62Z"/><path d="M118.75,237.51c-1.55,0-3.12,0-4.66-.09a117.44,117.44,0,0,1-51.15-13.81c-2.19-1.16-4.46-2.47-6.75-3.89A118.91,118.91,0,0,1,8.39,74.82l0-.12c.13-.3.25-.61.37-.9A117.9,117.9,0,0,1,27.63,42.61c.31-.36.62-.74,1-1.12a118.75,118.75,0,1,1,90.16,196ZM118.75,8A110.56,110.56,0,0,0,34.63,46.74l-.09.1c-.26.29-.51.59-.76.89A110,110,0,0,0,16.2,76.86l-.39,1A110.73,110.73,0,0,0,35,191.17a111.47,111.47,0,0,0,25.46,21.75c2.13,1.32,4.25,2.54,6.29,3.63a110.93,110.93,0,0,0,110.4-3.65A110.76,110.76,0,0,0,118.75,8Z"/><path class="cls-3" d="M167.63,99.45l-.39.19h0Z"/><path class="cls-3" d="M53.17,91.62l1.41.63Z"/><path class="cls-3" d="M44.34,87.79l1.94.83Z"/><path class="cls-3" d="M182.91,92.25l1.42-.63Z"/><path class="cls-3" d="M191.21,88.62l1.94-.83Z"/><path class="cls-3" d="M70.25,99.64l-.39-.19.39.2Z"/><path class="cls-1" d="M79.2,127.86c-7.5-8.09-10-22.86-9-28.21l-.39-.2c-5-2.5-10.17-4.9-15.28-7.2l-1.41-.63q-3.45-1.53-6.89-3l-1.94-.83q-3.51-1.49-7-2.9s1.15,32.94,13.87,51C59,132.12,69.46,129.58,79.2,127.86Z"/><path d="M51.24,139.86a4,4,0,0,1-3.27-1.7C34.71,119.38,33.41,86.42,33.37,85a4,4,0,0,1,5.5-3.85c2.32.95,4.67,1.93,7,2.93l2,.83c2.31,1,4.63,2,6.94,3l1.42.63c5.36,2.41,10.54,4.85,15.43,7.27l.4.2a4,4,0,0,1,2.15,4.31c-.73,3.91,1.15,17.43,7.94,24.76a4,4,0,0,1-2.24,6.66c-11.49,2-20.55,4.6-26.92,7.66A4,4,0,0,1,51.24,139.86Zm-9.4-48.78c.94,9.44,3.61,27.43,10.9,39.74a112.92,112.92,0,0,1,19.53-5.7A49.08,49.08,0,0,1,66.06,102c-4.19-2-8.59-4.11-13.12-6.14l-1.4-.63q-3.42-1.51-6.83-3l-1.93-.81Z"/><path d="M79.2,127.86c1.16-.2,2.3-.4,3.43-.58a257.64,257.64,0,0,1,28.72-2.8c-4.59-3.55-9.6-7-14.9-10.31-.79,3-2.9,5.08-5.4,5.08-3.16,0-5.72-3.41-5.72-7.61A9.5,9.5,0,0,1,86,108c-5.12-2.89-10.4-5.68-15.78-8.35h0C69.25,105,71.7,119.77,79.2,127.86Z"/><path d="M40.39,156.67l8.06-14.25c1.13-2,1.42-4.16,2.78-6.56h0c-12.72-18-13.87-51-13.87-51L15.61,151.55a13.07,13.07,0,0,0,3.79,13.83l27.46,24.23-2.39-6.28-5-11.93A16.56,16.56,0,0,1,40.39,156.67Z"/><path d="M46.86,193.61a4,4,0,0,1-2.65-1L16.76,168.38a17.08,17.08,0,0,1-5-18.07L33.56,83.65a4,4,0,0,1,7.8,1.1c0,.32,1.27,32,13.14,48.8A4,4,0,0,1,55,137.1a3.73,3.73,0,0,1-.41.88,18.39,18.39,0,0,0-1.15,2.79,21.69,21.69,0,0,1-1.53,3.61l-8.07,14.26h0a12.65,12.65,0,0,0-.7,11.22l5,11.92a.5.5,0,0,1,.05.13l2.39,6.28a4,4,0,0,1-1.46,4.71A4.06,4.06,0,0,1,46.86,193.61Zm-11.41-90-16,49.15a9.06,9.06,0,0,0,2.63,9.59l14.77,13-1-2.46a20.59,20.59,0,0,1,1.12-18.25L45,140.45a15.41,15.41,0,0,0,1-2.32c.21-.61.44-1.26.72-1.95C40.56,126.56,37.25,113.94,35.45,103.64Z"/><path class="cls-1" d="M91.05,119.25c2.5,0,4.61-2.12,5.4-5.08Q91.4,111,86,108a9.5,9.5,0,0,0-.7,3.65C85.33,115.84,87.89,119.25,91.05,119.25Z"/><path class="cls-1" d="M191.21,88.62q-3.44,1.47-6.88,3l-1.42.63c-5.11,2.3-10.23,4.7-15.28,7.2l-.39.2c1,5.35-1.45,20.12-9,28.21,9.74,1.72,20.2,4.26,28,8,12.72-18,13.87-51,13.87-51q-3.47,1.41-7,2.9Z"/><path d="M186.26,139.86a3.91,3.91,0,0,1-1.73-.4c-6.38-3.06-15.44-5.64-26.93-7.66a4,4,0,0,1-2.24-6.66c6.8-7.33,8.68-20.85,7.95-24.76a4,4,0,0,1,2.15-4.31l.39-.2c4.89-2.42,10.08-4.86,15.42-7.27L182.7,88c2.32-1,4.63-2,6.94-3h0l2-.83c2.35-1,4.7-2,7-2.93A4,4,0,0,1,204.13,85c0,1.39-1.34,34.35-14.6,53.13A4,4,0,0,1,186.26,139.86Zm-21-14.74a113.32,113.32,0,0,1,19.54,5.7c7.3-12.33,10-30.3,10.9-39.74l-.95.4-1.93.82c-2.27,1-4.54,2-6.83,3l-1.4.63c-4.52,2-8.93,4.1-13.12,6.14A48.84,48.84,0,0,1,165.22,125.12Z"/><path d="M167.24,99.65h0c-5.37,2.67-10.66,5.46-15.78,8.35a9.5,9.5,0,0,1,.71,3.65c0,4.2-2.57,7.61-5.73,7.61-2.49,0-4.61-2.12-5.39-5.08-5.31,3.33-10.31,6.76-14.91,10.31a257.42,257.42,0,0,1,28.72,2.8c1.13.18,2.28.38,3.43.58C165.79,119.77,168.24,105,167.24,99.65Z"/><path class="cls-1" d="M47.15,54.34A114.78,114.78,0,0,0,31.59,69.4c-.31.34-.6.69-.89,1a111.44,111.44,0,0,0-6.88,9.11c-3.9-1.49-7.69-2.89-11.32-4.2A114,114,0,0,1,30.7,45.18c.29-.35.58-.7.89-1C37.05,47.37,42.24,50.8,47.15,54.34Z"/><path class="cls-1" d="M225,75.35c-3.63,1.31-7.41,2.71-11.31,4.19a115.73,115.73,0,0,0-23.35-25.21c4.92-3.54,10.11-7,15.58-10.2A114.32,114.32,0,0,1,225,75.35Z"/><path class="cls-4" d="M47.15,54.34A114.78,114.78,0,0,0,31.59,69.4c-.31.34-.6.69-.89,1a111.44,111.44,0,0,0-6.88,9.11c4.39,1.67,8.93,3.45,13.54,5.34q3.47,1.41,7,2.9l1.94.83q3.44,1.47,6.89,3l1.41.63c5.11,2.3,10.23,4.7,15.28,7.2l.39.19C75.63,102.31,80.91,105.1,86,108q5.35,3,10.42,6.18c2.35,1.47,4.62,3,6.84,4.48,1.47-.29,2.93-.54,4.4-.74C99.31,105.08,79,77.27,47.15,54.34Z"/><path class="cls-1" d="M193.87,152.42l-4.74-9.25c-1-2-2.15-4.19-3.38-6.59.18-.23.34-.48.51-.72-7.77-3.74-18.23-6.28-28-8-1.16-.2-2.31-.4-3.44-.58a257.42,257.42,0,0,0-28.72-2.8c2.74-2.12,5.63-4.18,8.63-6.21-1.6-.23-3.21-.43-4.81-.6-2.21,3.37-3.63,5.76-4.22,6.79-4.34-.18-7-.18-7-.18s-2.66,0-7,.18c-.58-1-2-3.31-4.06-6.55-1.47.2-2.93.45-4.4.74,2.8,1.91,5.5,3.85,8.06,5.83a257.64,257.64,0,0,0-28.72,2.8c-1.13.18-2.27.38-3.43.58-9.74,1.72-20.19,4.26-28,8a20.89,20.89,0,0,0-1.48,3.43,18.27,18.27,0,0,1-1.3,3.13l-5.72,10.12C91.29,133,145.38,134.73,193.87,152.42Z"/><path class="cls-5" d="M193.87,152.42c-48.49-17.69-102.58-19.42-151.14.12l-2.34,4.13a16.56,16.56,0,0,0-.91,14.73l5,11.93,2.32,5.53L58.3,216.32c2.13,1.32,4.3,2.58,6.52,3.76a114.08,114.08,0,0,0,49.43,13.34q2.23.09,4.5.09a114.17,114.17,0,0,0,60.46-17.21l11.49-27.44,2.32-5.53,4.24-11.18a18.11,18.11,0,0,0-.82-14.73Z"/><path class="cls-6" d="M151.46,108c5.12-2.89,10.41-5.68,15.78-8.35l.39-.19c5.05-2.5,10.17-4.9,15.28-7.2l1.42-.63q3.45-1.53,6.88-3l1.94-.83q3.51-1.49,7-2.9c4.62-1.89,9.16-3.67,13.56-5.35a115.73,115.73,0,0,0-23.35-25.21C158.7,77.12,138.43,104.74,130,117.67c1.6.17,3.21.37,4.81.6q3.06-2.07,6.28-4.1C144.41,112.06,147.9,110,151.46,108Z"/><path d="M118.75,237.51c-1.55,0-3.12,0-4.66-.09a117.44,117.44,0,0,1-51.15-13.81c-2.19-1.16-4.46-2.47-6.75-3.89a4.06,4.06,0,0,1-1.58-1.85L35.79,172.94a20.54,20.54,0,0,1,1.12-18.24L45,140.45a15.7,15.7,0,0,0,1-2.31l0-.17a25.86,25.86,0,0,1,1.78-4.08,4,4,0,0,1,1.75-1.64c7-3.36,16.76-6.17,29-8.33l.45-.08,3-.51c6.33-1,12.49-1.68,17.92-2.14-1.78-1.19-3.64-2.4-5.6-3.63-3.23-2-6.68-4.07-10.25-6.08-5-2.82-10.24-5.6-15.6-8.26L68,103c-4.69-2.32-9.77-4.72-15.09-7.11l-1.4-.63q-3.42-1.51-6.83-3l-2-.84c-2.3-1-4.61-1.93-6.91-2.86-7.74-3.17-16-6.36-24.71-9.49A4,4,0,0,1,8.85,77a3.94,3.94,0,0,1,0-3.14A117.78,117.78,0,0,1,27.63,42.61c.32-.38.65-.78,1-1.17a4,4,0,0,1,5-.74c46.62,27.6,73.86,69,80.34,79.68,3-.1,4.69-.1,4.78-.1s1.83,0,4.77.1c6.48-10.65,33.72-52.08,80.36-79.69a4,4,0,0,1,5.08.84A118.1,118.1,0,0,1,228.7,73.84a3.94,3.94,0,0,1,0,3.14,4,4,0,0,1-2.29,2.13c-8.64,3.12-17,6.31-24.72,9.48q-3.45,1.41-6.93,2.88l-1.18.51-.74.31c-2.28,1-4.55,2-6.84,3l-1.4.62c-5.32,2.39-10.4,4.78-15.09,7.11l-.5.24c-5.37,2.67-10.62,5.45-15.53,8.22-3.75,2.12-7.1,4.11-10.25,6.09h0q-2.9,1.81-5.61,3.63c5.44.46,11.6,1.13,17.92,2.14l3.34.56.15,0c12.27,2.17,22,5,29,8.34a4,4,0,0,1,2.22,4.24l.5,1,2,3.87L200,155.59a22.2,22.2,0,0,1,1,18l-4.24,11.18s0,.08,0,.13l-13.81,33a4,4,0,0,1-1.58,1.85A118.44,118.44,0,0,1,118.75,237.51ZM61.49,213.58c1.77,1.07,3.51,2.07,5.21,3a110.93,110.93,0,0,0,109.32-3l13.28-31.71,4.22-11.12a14.15,14.15,0,0,0-.64-11.48L185.57,145c-.62-1.23-1.28-2.51-2-3.87l-1.39-2.71c-6.16-2.6-14.41-4.82-24.6-6.62l-.14,0-3.23-.54A251.51,251.51,0,0,0,126,128.48l-.22,0h-.18c-4.19-.18-6.79-.18-6.82-.18s-2.64,0-6.83.18h-.17l-.23,0a251.94,251.94,0,0,0-28.26,2.75c-1,.16-2,.32-2.94.5l-.44.07c-10.79,1.91-19.43,4.29-25.7,7.1-.24.57-.45,1.14-.66,1.74l-.05.12a20.75,20.75,0,0,1-1.54,3.64l-8.06,14.24a12.63,12.63,0,0,0-.7,11.21ZM205,49.33C174,68.42,152.27,93.58,140.18,110c2.89-1.79,5.95-3.59,9.31-5.49,5-2.85,10.41-5.69,16-8.45l.09,0,.18-.09.12-.07c4.8-2.37,10-4.81,15.42-7.26l1.46-.65c2.29-1,4.6-2,6.91-3l.76-.32,1.15-.49c2.4-1,4.75-2,7.07-2.95,6.66-2.72,13.72-5.45,21-8.14A109.79,109.79,0,0,0,205,49.33ZM17.85,73c7.33,2.7,14.38,5.43,21,8.15,2.32.94,4.67,1.92,7,2.91l2,.84c2.3,1,4.62,2,6.93,3l1.43.64c5.43,2.45,10.62,4.89,15.41,7.26l.13.07.15.07.12.06c5.48,2.72,10.86,5.56,16,8.45,3.21,1.81,6.34,3.65,9.31,5.48C85.21,93.57,63.45,68.41,32.46,49.34A109.67,109.67,0,0,0,17.85,73Z"/><path d="M200.13,84.89s-1.15,32.94-13.87,51c-.17.24-.33.49-.51.72,1.23,2.4,2.36,4.59,3.38,6.59l7.31,14.25a18.11,18.11,0,0,1,.82,14.73L193,183.33l-2.39,6.28,27.46-24.23a13.05,13.05,0,0,0,3.79-13.83Z"/><path d="M190.63,193.61a4,4,0,0,1-3.74-5.42l6.64-17.46a14.19,14.19,0,0,0-.65-11.48L185.57,145l-3.37-6.58a4,4,0,0,1,.34-4.2l.23-.34.22-.32c11.88-16.82,13.13-48.48,13.14-48.8a4,4,0,0,1,7.8-1.1l21.75,66.66a17,17,0,0,1-4.94,18.06l-27.46,24.24A4,4,0,0,1,190.63,193.61Zm-.23-56.73q1.23,2.38,2.29,4.47L200,155.59a22.16,22.16,0,0,1,1,18l-.88,2.33,15.32-13.52a9.06,9.06,0,0,0,2.64-9.59l-16-49.15C200.2,114.19,196.77,127.18,190.4,136.88Z"/><path class="cls-1" d="M146.44,119.25c3.16,0,5.73-3.41,5.73-7.61a9.5,9.5,0,0,0-.71-3.65c-3.56,2-7.05,4.07-10.41,6.18C141.83,117.13,144,119.25,146.44,119.25Z"/><path class="cls-1" d="M118.75,137.25v84.31s-31.18-39.85-34.1-49.2S100.68,142.05,118.75,137.25Z"/><path class="cls-1" d="M118.75,137.25v84.31s31.18-39.85,34.1-49.2S136.82,142.05,118.75,137.25Z"/><path class="cls-7" d="M118.75,155v66.61s-25.13-31.42-28-38.8S100.68,158.74,118.75,155Z"/><path class="cls-8" d="M118.75,155v66.61s23.27-31.42,26.19-38.8S136.82,158.74,118.75,155Z"/><path d="M118.75,225.56A4,4,0,0,1,115.6,224c-3.24-4.13-31.71-40.7-34.77-50.46-1.13-3.62-.29-8,2.5-13.1,5.62-10.19,19.59-23.15,34.39-27.08a4,4,0,0,1,2.06,0c14.8,3.93,28.77,16.89,34.39,27.08,2.79,5.07,3.63,9.48,2.5,13.1-3.06,9.76-31.53,46.33-34.77,50.46A4,4,0,0,1,118.75,225.56Zm0-84.15C107,145,95,155.9,90.34,164.33c-2.38,4.31-2,6.32-1.87,6.84,1.8,5.77,18.38,28.43,30.28,43.87,11.9-15.44,28.48-38.1,30.28-43.87.17-.52.51-2.53-1.87-6.84C142.51,155.9,130.47,145,118.75,141.41Z"/></g></g></svg>