<svg xmlns="http://www.w3.org/2000/svg" xmlns:xlink="http://www.w3.org/1999/xlink" viewBox="0 0 239.5 239.51"><defs><style>.cls-1{fill:#fff;}.cls-2{fill:url(#linear-gradient);}.cls-3{fill:url(#linear-gradient-2);}.cls-4{fill:url(#linear-gradient-3);}.cls-5{fill:url(#linear-gradient-4);}.cls-6{fill:url(#linear-gradient-5);}</style><linearGradient id="linear-gradient" x1="119.75" y1="236.14" x2="119.75" y2="44.55" gradientUnits="userSpaceOnUse"><stop offset="0" stop-color="#fe821e"/><stop offset="1" stop-color="#ffe80c"/></linearGradient><linearGradient id="linear-gradient-2" x1="29.97" y1="236.14" x2="29.97" y2="44.55" xlink:href="#linear-gradient"/><linearGradient id="linear-gradient-3" x1="29.97" y1="132.14" x2="29.97" y2="204.39" gradientUnits="userSpaceOnUse"><stop offset="0.07" stop-color="red"/><stop offset="1" stop-color="#a30000"/></linearGradient><linearGradient id="linear-gradient-4" x1="209.53" y1="236.14" x2="209.53" y2="44.55" xlink:href="#linear-gradient"/><linearGradient id="linear-gradient-5" x1="209.53" y1="132.14" x2="209.53" y2="204.39" xlink:href="#linear-gradient-3"/></defs><title>Ресурс 4xhdpi</title><g id="Слой_2" data-name="Слой 2"><g id="Layer_1" data-name="Layer 1"><path class="cls-1" d="M119.75,10A109.92,109.92,0,0,0,11.16,103.81a114.79,114.79,0,0,1,217.18,0A109.92,109.92,0,0,0,119.75,10Z"/><path class="cls-1" d="M119.75,26.23A114.79,114.79,0,0,0,11.16,103.81a110.44,110.44,0,0,0,1,37.75,20.38,20.38,0,0,1,11.75-3.83c13.18,0,23.86,13.26,23.86,29.62,0,10.28-4.23,19.34-10.64,24.65a109.72,109.72,0,0,0,165.22,0c-6.41-5.31-10.64-14.37-10.64-24.65,0-16.36,10.68-29.62,23.86-29.62a20.38,20.38,0,0,1,11.75,3.83,110.44,110.44,0,0,0,1-37.75A114.79,114.79,0,0,0,119.75,26.23Zm-6,106.14a14.11,14.11,0,0,1,6-.93,14.11,14.11,0,0,1,6,.93,2.4,2.4,0,0,1,.63,4,20.26,20.26,0,0,1-3.58,2.61,6,6,0,0,1-6,0,20.26,20.26,0,0,1-3.58-2.61A2.4,2.4,0,0,1,113.78,132.37Zm-58.28-8.9a18.33,18.33,0,1,1,18.33-18.33A18.32,18.32,0,0,1,55.5,123.47Zm97,41c-.31.48-7.5,11.8-17.87,11.8-3.86,0-7.74-1.52-11.53-4.54a5.4,5.4,0,0,0-6.72,0c-3.79,3-7.67,4.54-11.53,4.54C94.49,176.31,87.3,165,87,164.51a4,4,0,0,1,6.79-4.24c1.41,2.23,6.16,8,11.08,8,2,0,4.21-.94,6.56-2.8a13.32,13.32,0,0,1,16.66,0c2.35,1.86,4.55,2.8,6.56,2.8,4.92,0,9.67-5.81,11.09-8.05a4,4,0,0,1,6.78,4.25Zm31.49-41a18.33,18.33,0,1,1,18.33-18.33A18.32,18.32,0,0,1,184,123.47Z"/><path class="cls-2" d="M119.75,26.23A114.79,114.79,0,0,0,11.16,103.81a110.44,110.44,0,0,0,1,37.75,20.38,20.38,0,0,1,11.75-3.83c13.18,0,23.86,13.26,23.86,29.62,0,10.28-4.23,19.34-10.64,24.65a109.72,109.72,0,0,0,165.22,0c-6.41-5.31-10.64-14.37-10.64-24.65,0-16.36,10.68-29.62,23.86-29.62a20.38,20.38,0,0,1,11.75,3.83,110.44,110.44,0,0,0,1-37.75A114.79,114.79,0,0,0,119.75,26.23Zm-6,106.14a14.11,14.11,0,0,1,6-.93,14.11,14.11,0,0,1,6,.93,2.4,2.4,0,0,1,.63,4,20.26,20.26,0,0,1-3.58,2.61,6,6,0,0,1-6,0,20.26,20.26,0,0,1-3.58-2.61A2.4,2.4,0,0,1,113.78,132.37Zm-58.28-8.9a18.33,18.33,0,1,1,18.33-18.33A18.32,18.32,0,0,1,55.5,123.47Zm97,41c-.31.48-7.5,11.8-17.87,11.8-3.86,0-7.74-1.52-11.53-4.54a5.4,5.4,0,0,0-6.72,0c-3.79,3-7.67,4.54-11.53,4.54C94.49,176.31,87.3,165,87,164.51a4,4,0,0,1,6.79-4.24c1.41,2.23,6.16,8,11.08,8,2,0,4.21-.94,6.56-2.8a13.32,13.32,0,0,1,16.66,0c2.35,1.86,4.55,2.8,6.56,2.8,4.92,0,9.67-5.81,11.09-8.05a4,4,0,0,1,6.78,4.25Zm31.49-41a18.33,18.33,0,1,1,18.33-18.33A18.32,18.32,0,0,1,184,123.47Z"/><path d="M116.73,138.94a6,6,0,0,0,6,0,20.26,20.26,0,0,0,3.58-2.61,2.4,2.4,0,0,0-.63-4,14.11,14.11,0,0,0-6-.93,14.11,14.11,0,0,0-6,.93,2.4,2.4,0,0,0-.63,4A20.26,20.26,0,0,0,116.73,138.94Z"/><path d="M55.5,86.81a18.33,18.33,0,1,0,18.33,18.33A18.32,18.32,0,0,0,55.5,86.81Zm4.91,18.74A7.59,7.59,0,1,1,68,98,7.58,7.58,0,0,1,60.41,105.55Z"/><circle class="cls-1" cx="60.41" cy="97.97" r="7.58" transform="translate(-14.95 10.97) rotate(-9.24)"/><path d="M184,86.81a18.33,18.33,0,1,0,18.33,18.33A18.32,18.32,0,0,0,184,86.81Zm-4.91,18.74A7.59,7.59,0,1,1,186.67,98,7.58,7.58,0,0,1,179.09,105.55Z"/><circle class="cls-1" cx="179.09" cy="97.97" r="7.58" transform="translate(-13.41 30.03) rotate(-9.24)"/><path d="M151.24,159a4,4,0,0,0-5.51,1.25c-1.42,2.24-6.17,8.05-11.09,8.05-2,0-4.21-.94-6.56-2.8a13.32,13.32,0,0,0-16.66,0c-2.35,1.86-4.55,2.8-6.56,2.8-4.92,0-9.67-5.81-11.08-8A4,4,0,0,0,87,164.51c.31.48,7.5,11.8,17.87,11.8,3.86,0,7.74-1.52,11.53-4.54a5.4,5.4,0,0,1,6.72,0c3.79,3,7.67,4.54,11.53,4.54,10.37,0,17.56-11.32,17.87-11.8A4,4,0,0,0,151.24,159Z"/><path class="cls-1" d="M47.78,167.35c0-16.36-10.68-29.62-23.86-29.62a20.38,20.38,0,0,0-11.75,3.83c.18.92.38,1.83.58,2.73a109.83,109.83,0,0,0,24,47.23l.43.48C43.55,186.69,47.78,177.63,47.78,167.35Z"/><path class="cls-3" d="M47.78,167.35c0-16.36-10.68-29.62-23.86-29.62a20.38,20.38,0,0,0-11.75,3.83c.18.92.38,1.83.58,2.73a109.83,109.83,0,0,0,24,47.23l.43.48C43.55,186.69,47.78,177.63,47.78,167.35Z"/><path class="cls-4" d="M47.78,167.35c0-16.36-10.68-29.62-23.86-29.62a20.38,20.38,0,0,0-11.75,3.83c.18.92.38,1.83.58,2.73a109.83,109.83,0,0,0,24,47.23l.43.48C43.55,186.69,47.78,177.63,47.78,167.35Z"/><path class="cls-1" d="M191.72,167.35c0,10.28,4.23,19.34,10.64,24.65l.43-.48a109.85,109.85,0,0,0,24-47.22c.2-.91.4-1.82.58-2.74a20.38,20.38,0,0,0-11.75-3.83C202.4,137.73,191.72,151,191.72,167.35Z"/><path class="cls-5" d="M191.72,167.35c0,10.28,4.23,19.34,10.64,24.65l.43-.48a109.85,109.85,0,0,0,24-47.22c.2-.91.4-1.82.58-2.74a20.38,20.38,0,0,0-11.75-3.83C202.4,137.73,191.72,151,191.72,167.35Z"/><path class="cls-6" d="M191.72,167.35c0,10.28,4.23,19.34,10.64,24.65l.43-.48a109.85,109.85,0,0,0,24-47.22c.2-.91.4-1.82.58-2.74a20.38,20.38,0,0,0-11.75-3.83C202.4,137.73,191.72,151,191.72,167.35Z"/><path d="M119.75,0A119.84,119.84,0,1,0,239.5,119.75,119.89,119.89,0,0,0,119.75,0ZM229.5,119.75a110.12,110.12,0,0,1-2.17,21.81c-.18.92-.38,1.83-.58,2.74a109.85,109.85,0,0,1-24,47.22l-.43.48a109.72,109.72,0,0,1-165.22,0l-.43-.48a109.83,109.83,0,0,1-24-47.23c-.2-.9-.4-1.81-.58-2.73A109.76,109.76,0,1,1,229.5,119.75Z"/></g></g></svg>