<svg xmlns="http://www.w3.org/2000/svg" xmlns:xlink="http://www.w3.org/1999/xlink" viewBox="0 0 239.5 239.51"><defs><style>.cls-1{fill:#fff;}.cls-2{fill:url(#linear-gradient);}.cls-3{fill:url(#linear-gradient-2);}.cls-4{fill:#ff5200;}.cls-5{fill:url(#linear-gradient-3);}.cls-6{fill:none;stroke:#000;stroke-linecap:round;stroke-linejoin:round;stroke-width:0;}.cls-7{fill:url(#linear-gradient-4);}.cls-8{fill:url(#linear-gradient-5);}.cls-9{fill:url(#linear-gradient-6);}.cls-10{fill:url(#linear-gradient-7);}.cls-11{fill:url(#linear-gradient-8);}.cls-12{fill:url(#linear-gradient-9);}.cls-13{fill:url(#linear-gradient-10);}.cls-14{fill:url(#linear-gradient-11);}.cls-15{fill:url(#linear-gradient-12);}</style><linearGradient id="linear-gradient" x1="119.75" y1="138.85" x2="119.75" y2="41.44" gradientUnits="userSpaceOnUse"><stop offset="0.05" stop-color="#5eb423"/><stop offset="1" stop-color="#d6ec09"/></linearGradient><linearGradient id="linear-gradient-2" x1="119.75" y1="138.85" x2="119.75" y2="41.44" xlink:href="#linear-gradient"/><linearGradient id="linear-gradient-3" x1="119.75" y1="212.19" x2="119.75" y2="142.16" xlink:href="#linear-gradient"/><linearGradient id="linear-gradient-4" x1="119.75" y1="212.19" x2="119.75" y2="142.16" xlink:href="#linear-gradient"/><linearGradient id="linear-gradient-5" x1="119.75" y1="190.85" x2="119.75" y2="247.71" xlink:href="#linear-gradient"/><linearGradient id="linear-gradient-6" x1="119.75" y1="66.85" x2="119.75" y2="100.96" gradientUnits="userSpaceOnUse"><stop offset="0" stop-color="#9b0132"/><stop offset="1" stop-color="#f0047f"/></linearGradient><linearGradient id="linear-gradient-7" x1="39.84" y1="138.85" x2="39.84" y2="41.44" xlink:href="#linear-gradient"/><linearGradient id="linear-gradient-8" x1="39.84" y1="92.19" x2="39.84" y2="149.66" gradientUnits="userSpaceOnUse"><stop offset="0" stop-color="#fe821e"/><stop offset="1" stop-color="#ffe80c"/></linearGradient><linearGradient id="linear-gradient-9" x1="10.91" y1="92.19" x2="10.91" y2="149.66" xlink:href="#linear-gradient-8"/><linearGradient id="linear-gradient-10" x1="199.66" y1="138.85" x2="199.66" y2="41.44" xlink:href="#linear-gradient"/><linearGradient id="linear-gradient-11" x1="199.66" y1="92.19" x2="199.66" y2="149.66" xlink:href="#linear-gradient-8"/><linearGradient id="linear-gradient-12" x1="228.59" y1="92.19" x2="228.59" y2="149.66" xlink:href="#linear-gradient-8"/></defs><title>Ресурс 5xhdpi</title><g id="Слой_2" data-name="Слой 2"><g id="Layer_1" data-name="Layer 1"><path class="cls-1" d="M222.39,80.89a110.06,110.06,0,0,0-12.3-23.39A17.89,17.89,0,0,1,202,65a112.3,112.3,0,0,1,9.12,10.59A33.49,33.49,0,0,1,222.39,80.89Z"/><path class="cls-1" d="M119.75,30.26a114.22,114.22,0,0,1,47.93,10.47l20-7.15a109.52,109.52,0,0,0-135.78,0l20,7.15A114.22,114.22,0,0,1,119.75,30.26Z"/><path class="cls-1" d="M29.41,57.51a109.75,109.75,0,0,0-12.3,23.38,33.49,33.49,0,0,1,11.28-5.3A112.3,112.3,0,0,1,37.51,65,17.92,17.92,0,0,1,29.41,57.51Z"/><path class="cls-1" d="M71.82,40.73,101,51.19a55.7,55.7,0,0,0,37.46,0l29.2-10.46a114.94,114.94,0,0,0-95.86,0Z"/><path class="cls-2" d="M71.82,40.73,101,51.19a55.7,55.7,0,0,0,37.46,0l29.2-10.46a114.94,114.94,0,0,0-95.86,0Z"/><path class="cls-1" d="M159.87,126.12c0-33.5,14.14-51.94,39.81-51.94a44.08,44.08,0,0,1,11.43,1.41A112.3,112.3,0,0,0,202,65c-.34.16-.69.32-1.05.46L153.37,83.88a22.68,22.68,0,0,0-14.4,21v.64a19.22,19.22,0,0,1-38.44,0v-.64a22.68,22.68,0,0,0-14.4-21L38.56,65.46c-.36-.14-.71-.3-1.05-.46a112.3,112.3,0,0,0-9.12,10.59,44.08,44.08,0,0,1,11.43-1.41c25.67,0,39.81,18.44,39.81,51.94,0,27.31-17.86,49.53-39.81,49.53a33.35,33.35,0,0,1-17.25-4.89,110,110,0,0,0,24,30.79,7.11,7.11,0,0,0,7.85,1.21,7.39,7.39,0,0,0,4.44-7v-.4c0-32.33,22.77-51.63,60.9-51.63s60.9,19.3,60.9,51.63v.4a7.39,7.39,0,0,0,4.44,7,7.1,7.1,0,0,0,7.85-1.21,110,110,0,0,0,24-30.79,33.35,33.35,0,0,1-17.25,4.89C177.73,175.65,159.87,153.43,159.87,126.12Z"/><path class="cls-3" d="M159.87,126.12c0-33.5,14.14-51.94,39.81-51.94a44.08,44.08,0,0,1,11.43,1.41A112.3,112.3,0,0,0,202,65c-.34.16-.69.32-1.05.46L153.37,83.88a22.68,22.68,0,0,0-14.4,21v.64a19.22,19.22,0,0,1-38.44,0v-.64a22.68,22.68,0,0,0-14.4-21L38.56,65.46c-.36-.14-.71-.3-1.05-.46a112.3,112.3,0,0,0-9.12,10.59,44.08,44.08,0,0,1,11.43-1.41c25.67,0,39.81,18.44,39.81,51.94,0,27.31-17.86,49.53-39.81,49.53a33.35,33.35,0,0,1-17.25-4.89,110,110,0,0,0,24,30.79,7.11,7.11,0,0,0,7.85,1.21,7.39,7.39,0,0,0,4.44-7v-.4c0-32.33,22.77-51.63,60.9-51.63s60.9,19.3,60.9,51.63v.4a7.39,7.39,0,0,0,4.44,7,7.1,7.1,0,0,0,7.85-1.21,110,110,0,0,0,24-30.79,33.35,33.35,0,0,1-17.25,4.89C177.73,175.65,159.87,153.43,159.87,126.12Z"/><path d="M239.5,119.75h0a119.24,119.24,0,0,0-28.81-77.82,17,17,0,0,0-7.3-7.79,119.53,119.53,0,0,0-167.28,0,17,17,0,0,0-7.3,7.79A119.24,119.24,0,0,0,0,119.75c0,1.07,0,2.13,0,3.2s0,2.1,0,3.17a60.36,60.36,0,0,0,2,15.46c.3,1.66.63,3.31,1,4.95a119.86,119.86,0,0,0,26.14,51.54l.65.72c.55.63,1.11,1.26,1.68,1.88.32.36.65.7,1,1.05.5.53,1,1.05,1.49,1.56.35.37.71.73,1.07,1.09l1.46,1.43c.38.37.76.74,1.15,1.1s.95.89,1.43,1.33l.83.77.21.17a119.78,119.78,0,0,0,35.75,22l.05,0,.87.34a120.16,120.16,0,0,0,86,0l.87-.34.05-.05a119.63,119.63,0,0,0,35.76-22c.06-.06.13-.1.2-.16l.94-.88,1.27-1.17,1.25-1.19,1.37-1.35,1.14-1.15L207,201.8c.36-.39.72-.76,1.07-1.15.5-.54,1-1.09,1.47-1.64.28-.31.57-.62.84-.94a119.86,119.86,0,0,0,26.14-51.54c.38-1.64.71-3.3,1-5a60.78,60.78,0,0,0,2-15.45c0-1.07,0-2.13,0-3.17s0-2.13,0-3.2ZM119.75,10a109.2,109.2,0,0,1,67.89,23.58l-20,7.15-29.2,10.46a55.7,55.7,0,0,1-37.46,0L71.82,40.73l-20-7.15A109.2,109.2,0,0,1,119.75,10ZM37.47,47.16A7.26,7.26,0,0,1,44.41,42a7.13,7.13,0,0,1,2.44.43L97.65,60.6a65.64,65.64,0,0,0,44.2,0l50.8-18.19A7.25,7.25,0,0,1,202,47.16a6.85,6.85,0,0,1,.06,3.7,7.76,7.76,0,0,1-4.76,5.27L149.76,74.55A32.75,32.75,0,0,0,129,104.89v.64a9.22,9.22,0,0,1-18.44,0v-.64A32.75,32.75,0,0,0,89.74,74.55L42.17,56.13a7.79,7.79,0,0,1-4.77-5.28A6.81,6.81,0,0,1,37.47,47.16ZM11.82,139.74A51,51,0,0,1,10,126.12c0-1.06,0-2.1.05-3.13.74-25.75,10.74-38.81,29.77-38.81,19.78,0,29.81,14.11,29.81,41.94,0,21.8-13.37,39.53-29.81,39.53C27,165.65,16,154.85,11.82,139.74Zm109.24,89.74c-.43,0-.87,0-1.31,0s-.88,0-1.31,0c-13.34-.55-24-9.41-24-20.23C94.46,196,103.2,189,119.75,189c16.31,0,25.29,7.2,25.29,20.27C145,220.07,134.4,228.93,121.06,229.48Zm32.67-12.08a26.15,26.15,0,0,0,1.31-8.15C155,190.3,141.85,179,119.75,179S84.46,190.3,84.46,209.25a26.15,26.15,0,0,0,1.31,8.15c-7.71-6.77-12.44-15.82-12.44-25.77,0-23.66,15.47-37,43.65-37.84.91,0,1.83,0,2.77,0s1.86,0,2.77,0c28.18.82,43.65,14.18,43.65,37.84C166.17,201.58,161.44,210.63,153.73,217.4Zm49.06-25.88a111,111,0,0,1-9.85,10,7.1,7.1,0,0,1-7.85,1.21,7.39,7.39,0,0,1-4.44-7v-.4c0-32.33-22.77-51.63-60.9-51.63s-60.9,19.3-60.9,51.63v.4a7.39,7.39,0,0,1-4.44,7,7.11,7.11,0,0,1-7.85-1.21,110,110,0,0,1-24-30.79,33.35,33.35,0,0,0,17.25,4.89c22,0,39.81-22.22,39.81-49.53,0-33.5-14.14-51.94-39.81-51.94a44.08,44.08,0,0,0-11.43,1.41,33.49,33.49,0,0,0-11.28,5.3,109.75,109.75,0,0,1,12.3-23.38A17.92,17.92,0,0,0,37.51,65c.34.16.69.32,1.05.46L86.13,83.88a22.68,22.68,0,0,1,14.4,21v.64a19.22,19.22,0,0,0,38.44,0v-.64a22.68,22.68,0,0,1,14.4-21l47.57-18.42c.36-.14.71-.3,1.05-.46a17.89,17.89,0,0,0,8.1-7.5,110.06,110.06,0,0,1,12.3,23.39,33.49,33.49,0,0,0-11.28-5.3,44.08,44.08,0,0,0-11.43-1.41c-25.67,0-39.81,18.44-39.81,51.94,0,27.31,17.86,49.53,39.81,49.53a33.35,33.35,0,0,0,17.25-4.89A110.27,110.27,0,0,1,202.79,191.52Zm24.89-51.78c-4.2,15.11-15.16,25.91-28,25.91-16.44,0-29.81-17.73-29.81-39.53,0-27.83,10-41.94,29.81-41.94,19,0,29,13.06,29.77,38.82,0,1,.05,2.06.05,3.12A51,51,0,0,1,227.68,139.74Z"/><path class="cls-4" d="M122.52,153.79c-.91,0-1.83,0-2.77,0s-1.86,0-2.77,0c-28.18.82-43.65,14.18-43.65,37.84,0,10,4.73,19,12.44,25.77a26.15,26.15,0,0,1-1.31-8.15c0-18.95,13.19-30.27,35.29-30.27S155,190.3,155,209.25a26.15,26.15,0,0,1-1.31,8.15c7.71-6.77,12.44-15.82,12.44-25.77C166.17,168,150.7,154.61,122.52,153.79Z"/><path class="cls-5" d="M122.52,153.79c-.91,0-1.83,0-2.77,0s-1.86,0-2.77,0c-28.18.82-43.65,14.18-43.65,37.84,0,10,4.73,19,12.44,25.77a26.15,26.15,0,0,1-1.31-8.15c0-18.95,13.19-30.27,35.29-30.27S155,190.3,155,209.25a26.15,26.15,0,0,1-1.31,8.15c7.71-6.77,12.44-15.82,12.44-25.77C166.17,168,150.7,154.61,122.52,153.79Z"/><path class="cls-6" d="M117,153.79c.91,0,1.83,0,2.77,0"/><path class="cls-6" d="M119.75,153.75c.94,0,1.86,0,2.77,0"/><path class="cls-4" d="M119.75,189c-16.55,0-25.29,7-25.29,20.27,0,10.82,10.64,19.68,24,20.23.43,0,.87,0,1.31,0s.88,0,1.31,0c13.34-.55,24-9.41,24-20.23C145,196.18,136.06,189,119.75,189Z"/><path class="cls-7" d="M119.75,189c-16.55,0-25.29,7-25.29,20.27,0,10.82,10.64,19.68,24,20.23.43,0,.87,0,1.31,0s.88,0,1.31,0c13.34-.55,24-9.41,24-20.23C145,196.18,136.06,189,119.75,189Z"/><path class="cls-8" d="M119.75,189c-16.55,0-25.29,7-25.29,20.27,0,10.82,10.64,19.68,24,20.23.43,0,.87,0,1.31,0s.88,0,1.31,0c13.34-.55,24-9.41,24-20.23C145,196.18,136.06,189,119.75,189Z"/><path class="cls-6" d="M119.75,229.51c-.44,0-.88,0-1.31,0"/><path class="cls-6" d="M121.06,229.48c-.43,0-.87,0-1.31,0"/><path class="cls-1" d="M48.54,49.36l50.8,18.19a60.49,60.49,0,0,0,40.82,0L191,49.36a12.18,12.18,0,0,1,11.13,1.5,6.85,6.85,0,0,0-.06-3.7,7.25,7.25,0,0,0-9.38-4.75L141.85,60.6a65.64,65.64,0,0,1-44.2,0L46.85,42.41A7.13,7.13,0,0,0,44.41,42a7.26,7.26,0,0,0-6.94,5.18,6.81,6.81,0,0,0-.07,3.69A12.24,12.24,0,0,1,48.54,49.36Z"/><path class="cls-1" d="M191,49.36l-50.8,18.19a60.49,60.49,0,0,1-40.82,0L48.54,49.36A12.24,12.24,0,0,0,37.4,50.85a7.79,7.79,0,0,0,4.77,5.28L89.74,74.55a32.75,32.75,0,0,1,20.79,30.34v.64a9.22,9.22,0,0,0,18.44,0v-.64a32.75,32.75,0,0,1,20.79-30.34l47.57-18.42a7.76,7.76,0,0,0,4.76-5.27A12.18,12.18,0,0,0,191,49.36Z"/><path class="cls-9" d="M191,49.36l-50.8,18.19a60.49,60.49,0,0,1-40.82,0L48.54,49.36A12.24,12.24,0,0,0,37.4,50.85a7.79,7.79,0,0,0,4.77,5.28L89.74,74.55a32.75,32.75,0,0,1,20.79,30.34v.64a9.22,9.22,0,0,0,18.44,0v-.64a32.75,32.75,0,0,1,20.79-30.34l47.57-18.42a7.76,7.76,0,0,0,4.76-5.27A12.18,12.18,0,0,0,191,49.36Z"/><path class="cls-1" d="M69.63,126.12c0-27.83-10-41.94-29.81-41.94-19,0-29,13.06-29.77,38.81a110,110,0,0,0,1.77,16.75c4.2,15.11,15.16,25.91,28,25.91C56.26,165.65,69.63,147.92,69.63,126.12ZM19,125.57C19,98,33.54,95.07,39.82,95.07c7.79,0,20.85,4,20.85,30.5,0,16.37-9.16,29.19-20.85,29.19S19,141.94,19,125.57Z"/><path class="cls-10" d="M69.63,126.12c0-27.83-10-41.94-29.81-41.94-19,0-29,13.06-29.77,38.81a110,110,0,0,0,1.77,16.75c4.2,15.11,15.16,25.91,28,25.91C56.26,165.65,69.63,147.92,69.63,126.12ZM19,125.57C19,98,33.54,95.07,39.82,95.07c7.79,0,20.85,4,20.85,30.5,0,16.37-9.16,29.19-20.85,29.19S19,141.94,19,125.57Z"/><path class="cls-11" d="M69.63,126.12c0-27.83-10-41.94-29.81-41.94-19,0-29,13.06-29.77,38.81a110,110,0,0,0,1.77,16.75c4.2,15.11,15.16,25.91,28,25.91C56.26,165.65,69.63,147.92,69.63,126.12ZM19,125.57C19,98,33.54,95.07,39.82,95.07c7.79,0,20.85,4,20.85,30.5,0,16.37-9.16,29.19-20.85,29.19S19,141.94,19,125.57Z"/><path d="M10,126.12a51,51,0,0,0,1.82,13.62A110,110,0,0,1,10.05,123C10,124,10,125.06,10,126.12Z"/><path class="cls-12" d="M10,126.12a51,51,0,0,0,1.82,13.62A110,110,0,0,1,10.05,123C10,124,10,125.06,10,126.12Z"/><path d="M60.67,125.57c0-26.54-13.06-30.5-20.85-30.5-6.28,0-20.86,3-20.86,30.5,0,16.37,9.16,29.19,20.86,29.19S60.67,141.94,60.67,125.57ZM34.53,113.44c0-5.29,2.27-10.11,9.71-10.11S54,108.15,54,113.44a9.71,9.71,0,0,1-19.42,0Z"/><path class="cls-1" d="M54,113.44c0-5.29-2.23-10.11-9.71-10.11s-9.71,4.82-9.71,10.11a9.71,9.71,0,0,0,19.42,0Z"/><path class="cls-1" d="M199.68,84.18c-19.78,0-29.81,14.11-29.81,41.94,0,21.8,13.37,39.53,29.81,39.53,12.84,0,23.8-10.8,28-25.91A110,110,0,0,0,229.45,123C228.71,97.24,218.71,84.18,199.68,84.18Zm0,70.58c-11.69,0-20.85-12.82-20.85-29.19,0-27.53,14.58-30.5,20.85-30.5,7.79,0,20.86,4,20.86,30.5C220.54,141.94,211.38,154.76,199.68,154.76Z"/><path class="cls-13" d="M199.68,84.18c-19.78,0-29.81,14.11-29.81,41.94,0,21.8,13.37,39.53,29.81,39.53,12.84,0,23.8-10.8,28-25.91A110,110,0,0,0,229.45,123C228.71,97.24,218.71,84.18,199.68,84.18Zm0,70.58c-11.69,0-20.85-12.82-20.85-29.19,0-27.53,14.58-30.5,20.85-30.5,7.79,0,20.86,4,20.86,30.5C220.54,141.94,211.38,154.76,199.68,154.76Z"/><path class="cls-14" d="M199.68,84.18c-19.78,0-29.81,14.11-29.81,41.94,0,21.8,13.37,39.53,29.81,39.53,12.84,0,23.8-10.8,28-25.91A110,110,0,0,0,229.45,123C228.71,97.24,218.71,84.18,199.68,84.18Zm0,70.58c-11.69,0-20.85-12.82-20.85-29.19,0-27.53,14.58-30.5,20.85-30.5,7.79,0,20.86,4,20.86,30.5C220.54,141.94,211.38,154.76,199.68,154.76Z"/><path d="M227.68,139.74a51,51,0,0,0,1.82-13.62c0-1.06,0-2.1-.05-3.12A110,110,0,0,1,227.68,139.74Z"/><path class="cls-15" d="M227.68,139.74a51,51,0,0,0,1.82-13.62c0-1.06,0-2.1-.05-3.12A110,110,0,0,1,227.68,139.74Z"/><path d="M199.68,95.07c-6.27,0-20.85,3-20.85,30.5,0,16.37,9.16,29.19,20.85,29.19s20.86-12.82,20.86-29.19C220.54,99,207.47,95.07,199.68,95.07Zm4.43,28a9.65,9.65,0,0,1-9.71-9.58c0-5.29,2.27-10.11,9.71-10.11s9.71,4.82,9.71,10.11A9.65,9.65,0,0,1,204.11,123Z"/><path class="cls-1" d="M204.11,103.33c-7.44,0-9.71,4.82-9.71,10.11a9.71,9.71,0,0,0,19.42,0C213.82,108.15,211.58,103.33,204.11,103.33Z"/></g></g></svg>