<svg xmlns="http://www.w3.org/2000/svg" xmlns:xlink="http://www.w3.org/1999/xlink" viewBox="0 0 239.5 239.51"><defs><style>.cls-1{fill:#fff;}.cls-2{fill:url(#linear-gradient);}.cls-3{fill:url(#linear-gradient-2);}.cls-4{fill:url(#linear-gradient-3);}</style><linearGradient id="linear-gradient" x1="119.75" y1="228.86" x2="119.75" y2="50.31" gradientUnits="userSpaceOnUse"><stop offset="0" stop-color="#4d9a89"/><stop offset="1" stop-color="#abd9b6"/></linearGradient><linearGradient id="linear-gradient-2" x1="62.57" y1="141.86" x2="62.57" y2="115.19" gradientUnits="userSpaceOnUse"><stop offset="0.07" stop-color="red"/><stop offset="1" stop-color="#a30000"/></linearGradient><linearGradient id="linear-gradient-3" x1="176.93" y1="141.86" x2="176.93" y2="115.19" xlink:href="#linear-gradient-2"/></defs><title>Ресурс 6xhdpi</title><g id="Слой_2" data-name="Слой 2"><g id="Layer_1" data-name="Layer 1"><path class="cls-1" d="M36,58.2a4,4,0,0,1,1.35-5.49,36.53,36.53,0,0,1,16.27-5.52,114.73,114.73,0,0,1,132.24,0,36.53,36.53,0,0,1,16.27,5.52A4,4,0,0,1,201.06,60a114.73,114.73,0,0,1,27.28,43.8,109.76,109.76,0,0,0-217.18,0A114.77,114.77,0,0,1,38.44,60,4,4,0,0,1,36,58.2Z"/><path class="cls-1" d="M201.06,60a3.71,3.71,0,0,1-1,.13,4,4,0,0,1-2.06-.58c-8.74-5.29-17.09-5.85-25.54-1.72A4,4,0,1,1,169,50.64a32.5,32.5,0,0,1,16.92-3.45,114.73,114.73,0,0,0-132.24,0,32.48,32.48,0,0,1,16.92,3.45A4,4,0,1,1,67,57.83c-8.45-4.13-16.8-3.57-25.54,1.72a4,4,0,0,1-2.06.58,3.76,3.76,0,0,1-1-.13,114.77,114.77,0,0,0-27.28,43.81A109.77,109.77,0,0,0,226.75,144.3a110.67,110.67,0,0,0,1.59-40.5A114.73,114.73,0,0,0,201.06,60ZM133.91,169.71a4,4,0,0,1,4.67,3.19l1.13,6a4,4,0,0,1-3.2,4.67,4.74,4.74,0,0,1-.74.07,4,4,0,0,1-3.93-3.27l-1.12-6A4,4,0,0,1,133.91,169.71ZM99.79,178.9l1.13-6a4,4,0,1,1,7.86,1.48l-1.12,6a4,4,0,0,1-3.93,3.27,4.74,4.74,0,0,1-.74-.07A4,4,0,0,1,99.79,178.9ZM23.1,125C22.2,93,31.63,78.26,39.71,71.49c6.36-5.33,14.26-7.67,21.13-6.25C68.37,66.79,74.47,71.78,79,80.05,86,92.89,89.37,114,89.39,144.47a4,4,0,0,1-3.27,3.93,110.82,110.82,0,0,1-18.74,1.54c-8.59,0-18.89-1-28.14-4.56a49.48,49.48,0,0,1-4.77-2.13A21.17,21.17,0,0,1,23.1,125Zm175.58,60.17c-11,6-67.3,19.17-78.93,19.17s-68-13.13-78.93-19.17a21.51,21.51,0,0,1-11.5-19.85,4,4,0,1,1,8,.65,13.61,13.61,0,0,0,7.39,12.2c9.78,5.38,64.79,18.17,75.07,18.17s65.29-12.79,75.07-18.17a13.63,13.63,0,0,0,7.39-12.24,4,4,0,0,1,8-.61A21.51,21.51,0,0,1,198.68,185.15ZM216.4,125A21.17,21.17,0,0,1,205,143.25a50.6,50.6,0,0,1-4.77,2.13c-9.24,3.57-19.55,4.56-28.13,4.56a110.87,110.87,0,0,1-18.75-1.54,4,4,0,0,1-3.27-3.93c0-30.51,3.43-51.58,10.43-64.43,4.49-8.26,10.59-13.25,18.12-14.8,6.87-1.42,14.77.92,21.13,6.24C207.87,78.26,217.3,93,216.4,125Z"/><path class="cls-2" d="M201.06,60a3.71,3.71,0,0,1-1,.13,4,4,0,0,1-2.06-.58c-8.74-5.29-17.09-5.85-25.54-1.72A4,4,0,1,1,169,50.64a32.5,32.5,0,0,1,16.92-3.45,114.73,114.73,0,0,0-132.24,0,32.48,32.48,0,0,1,16.92,3.45A4,4,0,1,1,67,57.83c-8.45-4.13-16.8-3.57-25.54,1.72a4,4,0,0,1-2.06.58,3.76,3.76,0,0,1-1-.13,114.77,114.77,0,0,0-27.28,43.81A109.77,109.77,0,0,0,226.75,144.3a110.67,110.67,0,0,0,1.59-40.5A114.73,114.73,0,0,0,201.06,60ZM133.91,169.71a4,4,0,0,1,4.67,3.19l1.13,6a4,4,0,0,1-3.2,4.67,4.74,4.74,0,0,1-.74.07,4,4,0,0,1-3.93-3.27l-1.12-6A4,4,0,0,1,133.91,169.71ZM99.79,178.9l1.13-6a4,4,0,1,1,7.86,1.48l-1.12,6a4,4,0,0,1-3.93,3.27,4.74,4.74,0,0,1-.74-.07A4,4,0,0,1,99.79,178.9ZM23.1,125C22.2,93,31.63,78.26,39.71,71.49c6.36-5.33,14.26-7.67,21.13-6.25C68.37,66.79,74.47,71.78,79,80.05,86,92.89,89.37,114,89.39,144.47a4,4,0,0,1-3.27,3.93,110.82,110.82,0,0,1-18.74,1.54c-8.59,0-18.89-1-28.14-4.56a49.48,49.48,0,0,1-4.77-2.13A21.17,21.17,0,0,1,23.1,125Zm175.58,60.17c-11,6-67.3,19.17-78.93,19.17s-68-13.13-78.93-19.17a21.51,21.51,0,0,1-11.5-19.85,4,4,0,1,1,8,.65,13.61,13.61,0,0,0,7.39,12.2c9.78,5.38,64.79,18.17,75.07,18.17s65.29-12.79,75.07-18.17a13.63,13.63,0,0,0,7.39-12.24,4,4,0,0,1,8-.61A21.51,21.51,0,0,1,198.68,185.15ZM216.4,125A21.17,21.17,0,0,1,205,143.25a50.6,50.6,0,0,1-4.77,2.13c-9.24,3.57-19.55,4.56-28.13,4.56a110.87,110.87,0,0,1-18.75-1.54,4,4,0,0,1-3.27-3.93c0-30.51,3.43-51.58,10.43-64.43,4.49-8.26,10.59-13.25,18.12-14.8,6.87-1.42,14.77.92,21.13,6.24C207.87,78.26,217.3,93,216.4,125Z"/><path d="M119.75,0A119.84,119.84,0,1,0,239.5,119.75,119.89,119.89,0,0,0,119.75,0Zm107,144.3a110.67,110.67,0,1,1,2.75-24.55A109.85,109.85,0,0,1,226.75,144.3Z"/><path d="M203.49,58.2a4,4,0,0,0-1.35-5.49,36.53,36.53,0,0,0-16.27-5.52A32.5,32.5,0,0,0,169,50.64a4,4,0,1,0,3.51,7.19c8.45-4.13,16.8-3.57,25.54,1.72a4,4,0,0,0,2.06.58,3.71,3.71,0,0,0,1-.13A4,4,0,0,0,203.49,58.2Z"/><path d="M36,58.2A4,4,0,0,0,38.44,60a3.76,3.76,0,0,0,1,.13,4,4,0,0,0,2.06-.58C50.24,54.26,58.59,53.7,67,57.83a4,4,0,1,0,3.51-7.19,32.48,32.48,0,0,0-16.92-3.45,36.53,36.53,0,0,0-16.27,5.52A4,4,0,0,0,36,58.2Z"/><path class="cls-1" d="M38.13,136.14c.47.24,1,.47,1.46.7q-.57-2.76-1-5.74c-4.75-30.8,6.46-51,21.76-53.35a.76.76,0,0,0,.16,0,16.18,16.18,0,0,1,7.78.8,16.32,16.32,0,0,0-9-5.44,11.75,11.75,0,0,0-2.39-.23,19,19,0,0,0-12,4.77C38.13,83.25,30.28,96,31.1,124.75A13.18,13.18,0,0,0,38.13,136.14Z"/><path d="M63.05,129.68c-8.13.67-14.58-5.84-16.24-20.44-.45,5.94-.2,13.78,1,24.19.26,2.22.71,4.45,1.14,6.57,11,2.58,22.71,2.05,29.62,1.35,0-3.44-.26-6.64-.44-8.82a141.22,141.22,0,0,0-1.92-14.73C73.91,125.27,68.81,129.22,63.05,129.68Z"/><path class="cls-3" d="M63.05,129.68c-8.13.67-14.58-5.84-16.24-20.44-.45,5.94-.2,13.78,1,24.19.26,2.22.71,4.45,1.14,6.57,11,2.58,22.71,2.05,29.62,1.35,0-3.44-.26-6.64-.44-8.82a141.22,141.22,0,0,0-1.92-14.73C73.91,125.27,68.81,129.22,63.05,129.68Z"/><path class="cls-1" d="M64,81.55c-5.09.42-9.28,6.61-8.47,16.56s4.83,14.38,9.92,14S74.8,106.56,74,96.61,69.12,81.14,64,81.55Z"/><path class="cls-1" d="M194.65,77.62c-5.3-4.45-10.9-5.26-14.38-4.54a16.32,16.32,0,0,0-9,5.44,16.18,16.18,0,0,1,7.78-.8.76.76,0,0,0,.16,0c15.3,2.36,26.52,22.55,21.76,53.35q-.47,3-1,5.74c.49-.23,1-.46,1.46-.7a13.18,13.18,0,0,0,7-11.39C209.22,96,201.37,83.25,194.65,77.62Z"/><path d="M176.45,129.68c-5.76-.46-10.86-4.41-13.14-11.88a141.22,141.22,0,0,0-1.92,14.73c-.18,2.17-.39,5.38-.44,8.81,6.92.7,18.65,1.23,29.62-1.35.43-2.11.88-4.34,1.14-6.56,1.18-10.41,1.43-18.25,1-24.19C191,123.84,184.58,130.35,176.45,129.68Z"/><path class="cls-4" d="M176.45,129.68c-5.76-.46-10.86-4.41-13.14-11.88a141.22,141.22,0,0,0-1.92,14.73c-.18,2.17-.39,5.38-.44,8.81,6.92.7,18.65,1.23,29.62-1.35.43-2.11.88-4.34,1.14-6.56,1.18-10.41,1.43-18.25,1-24.19C191,123.84,184.58,130.35,176.45,129.68Z"/><path class="cls-1" d="M174,112.07c5.09.42,9.11-4,9.92-14S180.57,82,175.48,81.55s-9.17,5.11-10,15.06S168.94,111.66,174,112.07Z"/><path d="M205.91,161.65a4,4,0,0,0-3.7,4.26,13.63,13.63,0,0,1-7.39,12.24c-9.78,5.38-64.79,18.17-75.07,18.17s-65.29-12.79-75.07-18.17A13.61,13.61,0,0,1,37.29,166a4,4,0,1,0-8-.65,21.51,21.51,0,0,0,11.5,19.85c11,6,67.3,19.17,78.93,19.17s68-13.13,78.93-19.17a21.51,21.51,0,0,0,11.5-19.85A4,4,0,0,0,205.91,161.65Z"/><path d="M103,183.57a4.74,4.74,0,0,0,.74.07,4,4,0,0,0,3.93-3.27l1.12-6a4,4,0,1,0-7.86-1.48l-1.13,6A4,4,0,0,0,103,183.57Z"/><path d="M131.84,180.37a4,4,0,0,0,3.93,3.27,4.74,4.74,0,0,0,.74-.07,4,4,0,0,0,3.2-4.67l-1.13-6a4,4,0,1,0-7.86,1.48Z"/><path d="M39.24,145.38c9.25,3.57,19.55,4.56,28.14,4.56a110.82,110.82,0,0,0,18.74-1.54,4,4,0,0,0,3.27-3.93C89.37,114,86,92.89,79,80.05c-4.49-8.27-10.59-13.26-18.12-14.81-6.87-1.42-14.77.92-21.13,6.25C31.63,78.26,22.2,93,23.1,125a21.17,21.17,0,0,0,11.37,18.27A49.48,49.48,0,0,0,39.24,145.38Zm38.87-12.85c.18,2.18.39,5.38.44,8.82-6.91.7-18.63,1.23-29.62-1.35-.43-2.12-.88-4.35-1.14-6.57-1.18-10.41-1.43-18.25-1-24.19,1.66,14.6,8.11,21.11,16.24,20.44,5.76-.46,10.86-4.41,13.14-11.88A141.22,141.22,0,0,1,78.11,132.53ZM74,96.61c.8,10-3.44,15-8.53,15.46s-9.11-4-9.92-14S58.93,82,64,81.55,73.19,86.66,74,96.61Zm-29.15-19a19,19,0,0,1,12-4.77,11.75,11.75,0,0,1,2.39.23,16.32,16.32,0,0,1,9,5.44,16.18,16.18,0,0,0-7.78-.8.76.76,0,0,1-.16,0C45,80.11,33.81,100.3,38.56,131.1q.46,3,1,5.74c-.49-.23-1-.46-1.46-.7a13.18,13.18,0,0,1-7-11.39C30.28,96,38.13,83.25,44.85,77.62Z"/><path d="M199.79,71.48c-6.36-5.32-14.26-7.66-21.13-6.24C171.13,66.79,165,71.78,160.54,80c-7,12.85-10.41,33.92-10.43,64.43a4,4,0,0,0,3.27,3.93,110.87,110.87,0,0,0,18.75,1.54c8.58,0,18.89-1,28.13-4.56a50.6,50.6,0,0,0,4.77-2.13A21.17,21.17,0,0,0,216.4,125C217.3,93,207.87,78.26,199.79,71.48ZM165.5,96.61c.81-10,4.88-15.47,10-15.06s9.28,6.61,8.47,16.56-4.83,14.38-9.92,14S164.7,106.56,165.5,96.61Zm26.21,36.82c-.26,2.22-.71,4.45-1.14,6.56-11,2.58-22.7,2-29.62,1.35.05-3.43.26-6.64.44-8.81a141.22,141.22,0,0,1,1.92-14.73c2.28,7.47,7.38,11.42,13.14,11.88,8.13.67,14.58-5.84,16.24-20.44C193.14,115.18,192.89,123,191.71,133.43Zm16.69-8.68a13.18,13.18,0,0,1-7,11.39c-.47.24-1,.47-1.46.7q.57-2.76,1-5.74c4.76-30.8-6.46-51-21.76-53.35a.76.76,0,0,1-.16,0,16.18,16.18,0,0,0-7.78.8,16.32,16.32,0,0,1,9-5.44c3.48-.72,9.08.09,14.38,4.54C201.37,83.25,209.22,96,208.4,124.75Z"/></g></g></svg>