<svg xmlns="http://www.w3.org/2000/svg" xmlns:xlink="http://www.w3.org/1999/xlink" viewBox="0 0 237.5 237.51"><defs><style>.cls-1{fill:url(#linear-gradient);}.cls-2{fill:#fff;}.cls-3{fill:url(#linear-gradient-2);}.cls-4{fill:url(#linear-gradient-3);}.cls-5{fill:#e5e5e5;}.cls-6{fill:#930009;}.cls-7{fill:url(#linear-gradient-4);}.cls-8{fill:url(#linear-gradient-5);}.cls-9{fill:url(#linear-gradient-6);}</style><linearGradient id="linear-gradient" x1="118.75" y1="233.24" x2="118.75" y2="155.24" gradientUnits="userSpaceOnUse"><stop offset="0" stop-color="#fb9937"/><stop offset="1" stop-color="#fcd657"/></linearGradient><linearGradient id="linear-gradient-2" x1="118.75" y1="163.65" x2="118.75" y2="72.16" gradientUnits="userSpaceOnUse"><stop offset="0.03" stop-color="#530148"/><stop offset="1" stop-color="#82027e"/></linearGradient><linearGradient id="linear-gradient-3" x1="47.49" y1="123" x2="85.59" y2="123" gradientUnits="userSpaceOnUse"><stop offset="0" stop-color="red"/><stop offset="0.97" stop-color="#7c0006"/></linearGradient><linearGradient id="linear-gradient-4" x1="151.9" y1="123" x2="190" y2="123" gradientUnits="userSpaceOnUse"><stop offset="0.03" stop-color="#7c0006"/><stop offset="1" stop-color="red"/></linearGradient><linearGradient id="linear-gradient-5" x1="102.17" y1="217.57" x2="102.17" y2="158.36" gradientUnits="userSpaceOnUse"><stop offset="0" stop-color="#fff"/><stop offset="1" stop-color="#868686"/></linearGradient><linearGradient id="linear-gradient-6" x1="135.33" y1="217.57" x2="135.33" y2="158.36" xlink:href="#linear-gradient-5"/></defs><title>Ресурс 7xhdpi</title><g id="Слой_2" data-name="Слой 2"><g id="Layer_1" data-name="Layer 1"><path class="cls-1" d="M233.5,118.75a114.78,114.78,0,0,1-218.68,48.7,113.2,113.2,0,0,1-7.94-23A114.76,114.76,0,1,1,233.5,118.75Z"/><path class="cls-2" d="M233.5,118.75a117.3,117.3,0,0,1-.69,12.65,113.92,113.92,0,0,1-10.13,36c-.45-30.11-14.27-31.31-14.27-31.31L190,130.56s-34.17-4.17-38.09,9.56c-2.38,8.34-14.1,13.72-22.94,16.66a32.26,32.26,0,0,1-20.46,0c-8.84-2.94-20.56-8.32-22.94-16.66-3.92-13.73-38.09-9.56-38.09-9.56l-18.4,5.58s-13.82,1.2-14.27,31.31a113.92,113.92,0,0,1-10.13-36A117.3,117.3,0,0,1,4,118.75a114.75,114.75,0,0,1,229.5,0Z"/><path class="cls-3" d="M232.81,131.4a113.92,113.92,0,0,1-10.13,36c-.45-30.11-14.27-31.31-14.27-31.31L190,130.56s-34.17-4.17-38.09,9.56c-2.38,8.34-14.1,13.72-22.94,16.66a32.26,32.26,0,0,1-20.46,0c-8.84-2.94-20.56-8.32-22.94-16.66-3.92-13.73-38.09-9.56-38.09-9.56l-18.4,5.58s-13.82,1.2-14.27,31.31a113.92,113.92,0,0,1-10.13-36,114.75,114.75,0,0,1,228.12,0Z"/><path d="M118.75,237.51A118.84,118.84,0,0,1,11.2,169.15,117.4,117.4,0,0,1,3,145.3a118.77,118.77,0,1,1,115.77,92.21ZM118.75,8a110.85,110.85,0,0,0-108,135.52,109.24,109.24,0,0,0,7.66,22.23A110.76,110.76,0,1,0,118.75,8Z"/><path d="M14.82,171.45a4,4,0,0,1-3.62-2.3A117.4,117.4,0,0,1,3,145.3a118.75,118.75,0,1,1,231.54,0,117.4,117.4,0,0,1-8.22,23.85,4,4,0,0,1-7.62-1.64c-.37-24.47-9.85-27.2-10.69-27.39a2.27,2.27,0,0,1-.74-.15l-18.06-5.48c-10.18-1.17-31.2-1.06-33.42,6.73-2.28,8-10.87,14.48-25.53,19.36a36.14,36.14,0,0,1-23,0C92.6,155.7,84,149.18,81.73,141.22c-2.22-7.79-23.24-7.91-33.42-6.73L30.25,140a2.27,2.27,0,0,1-.74.15c-.84.19-10.32,2.92-10.69,27.39a4,4,0,0,1-4,3.94Zm43.77-45.52c11.53,0,27.68,2,30.84,13.09,1.44,5,8.86,10.14,20.35,14a28.24,28.24,0,0,0,17.94,0c11.49-3.83,18.91-8.92,20.35-14,4.73-16.54,38.58-12.9,42.42-12.43a5.12,5.12,0,0,1,.68.14l18.16,5.51c2.4.45,11.37,3.18,15.39,18.8.76-2.48,1.42-5,2-7.52a110.75,110.75,0,1,0-215.94,0c.58,2.53,1.24,5,2,7.52,4-15.62,13-18.35,15.39-18.8l18.16-5.51a5.12,5.12,0,0,1,.68-.14A99.76,99.76,0,0,1,58.59,125.93Z"/><path class="cls-2" d="M85.59,140.14a157.11,157.11,0,0,1-37.43,0,106.59,106.59,0,0,1-19.07-4c-1.22-16.56,1.36-28.31,6.85-39.8a108.23,108.23,0,0,1,16.8,8.38A95.81,95.81,0,0,1,66.6,115a87.24,87.24,0,0,1,9.81,10.32c6.51,8.1,9,14.35,9.17,14.78Z"/><path class="cls-4" d="M85.59,140.14a157.11,157.11,0,0,1-37.43,0,68.38,68.38,0,0,1-.67-9.61,63.28,63.28,0,0,1,5.25-25.84A95.81,95.81,0,0,1,66.6,115a87.24,87.24,0,0,1,9.81,10.32c6.51,8.1,9,14.35,9.17,14.78-.08-.46-.17-.93-.27-1.39C85.41,139.2,85.5,139.67,85.59,140.14Z"/><path class="cls-2" d="M76.41,125.34c-1,4.93-2.57,8.09-4.32,8.1-2.79,0-5.1-8-5.49-18.42A87.24,87.24,0,0,1,76.41,125.34Z"/><path class="cls-5" d="M59.75,93.75a42.38,42.38,0,0,0-7,11,108.23,108.23,0,0,0-16.8-8.38,126.3,126.3,0,0,1,7.65-13.53A65.1,65.1,0,0,1,59.75,93.75Z"/><path class="cls-6" d="M67.23,101.61a72.06,72.06,0,0,0-.69,10.44q0,1.52.06,3a95.81,95.81,0,0,0-13.86-10.3,42.38,42.38,0,0,1,7-11c.62.57,1.24,1.15,1.84,1.74a2.55,2.55,0,0,1,.23.24c.55.53,1.08,1.07,1.6,1.61q.31.31.6.63c.39.41.77.82,1.14,1.24.71.78,1.4,1.58,2.07,2.39Z"/><path class="cls-5" d="M77.45,117h0a57.9,57.9,0,0,1-1,8.3A87.24,87.24,0,0,0,66.6,115q-.06-1.45-.06-3a72.06,72.06,0,0,1,.69-10.44c.35.42.69.83,1,1.26s.59.74.88,1.12.69.9,1,1.36.61.83.91,1.26c.52.72,1,1.46,1.52,2.2s.84,1.28,1.24,1.92.82,1.33,1.22,2c.2.33.39.65.58,1C76.26,114.81,76.87,115.92,77.45,117Z"/><path class="cls-6" d="M85.58,140.12c-.16-.43-2.66-6.68-9.17-14.78a57.9,57.9,0,0,0,1-8.3c.34.64.66,1.28,1,1.92.22.44.43.88.64,1.32s.47,1,.7,1.53c.46,1,.9,2,1.31,3.08.2.5.4,1,.59,1.5s.4,1.06.59,1.58.29.82.43,1.23c.23.65.44,1.3.64,2,.14.42.27.83.38,1.25q1,3.19,1.61,6.33C85.41,139.19,85.5,139.66,85.58,140.12Z"/><path class="cls-2" d="M151.9,140.14a157.11,157.11,0,0,0,37.43,0,106.59,106.59,0,0,0,19.07-4c1.22-16.56-1.36-28.31-6.85-39.8a108.23,108.23,0,0,0-16.8,8.38A95.81,95.81,0,0,0,170.89,115a87.24,87.24,0,0,0-9.81,10.32c-6.51,8.1-9,14.35-9.17,14.78Z"/><path class="cls-7" d="M151.9,140.14a157.11,157.11,0,0,0,37.43,0,68.38,68.38,0,0,0,.67-9.61,63.28,63.28,0,0,0-5.25-25.84A95.81,95.81,0,0,0,170.89,115a87.24,87.24,0,0,0-9.81,10.32c-6.51,8.1-9,14.35-9.17,14.78.08-.46.17-.93.27-1.39C152.08,139.2,152,139.67,151.9,140.14Z"/><path class="cls-2" d="M161.08,125.34c1,4.93,2.57,8.09,4.32,8.1,2.79,0,5.1-8,5.49-18.42A87.24,87.24,0,0,0,161.08,125.34Z"/><path class="cls-5" d="M177.74,93.75a42.38,42.38,0,0,1,7,11,108.23,108.23,0,0,1,16.8-8.38,126.3,126.3,0,0,0-7.65-13.53A65.1,65.1,0,0,0,177.74,93.75Z"/><path class="cls-6" d="M170.26,101.61a72.06,72.06,0,0,1,.69,10.44q0,1.52-.06,3a95.81,95.81,0,0,1,13.86-10.3,42.38,42.38,0,0,0-7-11c-.62.57-1.24,1.15-1.84,1.74a2.55,2.55,0,0,0-.23.24c-.55.53-1.08,1.07-1.6,1.61q-.31.31-.6.63c-.39.41-.77.82-1.14,1.24-.71.78-1.4,1.58-2.07,2.39Z"/><path class="cls-5" d="M160,117h0a57.9,57.9,0,0,0,1,8.3A87.24,87.24,0,0,1,170.89,115q.06-1.45.06-3a72.06,72.06,0,0,0-.69-10.44c-.35.42-.69.83-1,1.26s-.59.74-.88,1.12-.69.9-1,1.36-.61.83-.91,1.26c-.52.72-1,1.46-1.52,2.2s-.84,1.28-1.24,1.92-.82,1.33-1.22,2c-.2.33-.39.65-.58,1C161.23,114.81,160.62,115.92,160,117Z"/><path class="cls-6" d="M151.91,140.12c.16-.43,2.66-6.68,9.17-14.78a57.9,57.9,0,0,1-1-8.3c-.34.64-.66,1.28-1,1.92-.22.44-.43.88-.64,1.32s-.47,1-.7,1.53c-.46,1-.9,2-1.31,3.08-.2.5-.4,1-.59,1.5s-.4,1.06-.59,1.58-.29.82-.43,1.23c-.23.65-.44,1.3-.64,2-.14.42-.27.83-.38,1.25q-1,3.19-1.61,6.33C152.08,139.19,152,139.66,151.91,140.12Z"/><path class="cls-8" d="M85.58,174.57s20.23,6.67,33.17,6.67v38s-13.06,3.33-19.06-2.67S85.58,174.57,85.58,174.57Z"/><path d="M110.88,224.18c-4.69,0-10.21-1-14-4.78-6.49-6.49-13.78-37.75-15.18-44a4,4,0,0,1,5.15-4.68c.2.07,19.78,6.47,31.92,6.47a4,4,0,0,1,4,4v38a4,4,0,0,1-3,3.87A37.87,37.87,0,0,1,110.88,224.18ZM91.07,180.39c3.76,15.23,8.63,30.53,11.45,33.35s8.38,2.64,12.23,2.16V185.07C106.67,184.43,97.26,182.13,91.07,180.39Z"/><path class="cls-9" d="M151.91,175.24s-20.22,6.66-33.16,6.66v38s13.05,3.34,19.05-2.66S151.91,175.24,151.91,175.24Z"/><path d="M126.62,224.85a38.46,38.46,0,0,1-8.86-1.07,4,4,0,0,1-3-3.88v-38a4,4,0,0,1,4-4c12.14,0,31.72-6.4,31.91-6.46a4,4,0,0,1,5.16,4.68c-1.4,6.2-8.7,37.45-15.19,43.94C136.83,223.87,131.3,224.85,126.62,224.85Zm-3.87-8.29c3.85.49,9.55.53,12.23-2.15s7.69-18.12,11.45-33.35c-6.2,1.73-15.6,4-23.68,4.67Z"/><path d="M43.59,80.92A65.1,65.1,0,0,1,59.75,91.86c.62.57,1.24,1.15,1.84,1.74a2.55,2.55,0,0,1,.23.24c.55.53,1.08,1.07,1.6,1.61q.31.31.6.63c.39.41.77.82,1.14,1.24.71.78,1.4,1.58,2.07,2.39h0c.35.42.69.83,1,1.26s.59.74.88,1.12.69.9,1,1.36.61.83.91,1.26c.52.72,1,1.46,1.52,2.2s.84,1.28,1.24,1.92.82,1.33,1.22,2c.2.33.39.65.58,1,.63,1.09,1.24,2.2,1.82,3.31h0c.34.64.66,1.28,1,1.92.22.44.43.88.64,1.32s.47,1,.7,1.53c.46,1,.9,2,1.31,3.08.2.5.4,1,.59,1.5s.4,1.06.59,1.58.29.82.43,1.23c.23.65.44,1.3.64,1.95.14.42.27.83.38,1.25q1,3.19,1.61,6.33c.1.47.19.94.28,1.41a166.19,166.19,0,0,1-19.26,1.13,146.13,146.13,0,0,1-18.17-1.1,106.59,106.59,0,0,1-19.07-4c-1.22-16.56,1.36-28.31,6.85-39.8a126.3,126.3,0,0,1,7.65-13.53m0-8a8,8,0,0,0-6.76,3.7A134.07,134.07,0,0,0,28.72,91c-6.49,13.57-8.84,27.09-7.61,43.82a8,8,0,0,0,5.56,7,115,115,0,0,0,20.51,4.34,153.93,153.93,0,0,0,19.15,1.16,176.82,176.82,0,0,0,20.19-1.18,8,8,0,0,0,6.93-9.45c-.1-.52-.2-1-.31-1.54-.46-2.23-1-4.55-1.74-6.88-.15-.57-.32-1.1-.46-1.51-.24-.78-.47-1.48-.7-2.13-.15-.46-.31-.91-.47-1.36l-.09-.24c-.18-.49-.36-1-.56-1.48s-.41-1-.62-1.58c-.43-1.09-.92-2.24-1.44-3.4-.25-.55-.5-1.1-.76-1.65l-.7-1.44c-.33-.69-.65-1.31-.95-1.89a2.12,2.12,0,0,0-.11-.21c-.62-1.2-1.28-2.4-2-3.57l-.68-1.15c-.42-.7-.84-1.41-1.31-2.15s-.87-1.36-1.32-2c-.57-.86-1.13-1.67-1.68-2.44-.38-.55-.71-1-1-1.42s-.73-1-1.1-1.45-.62-.8-.94-1.2-.63-.79-1-1.18l-.18-.23c-.77-.92-1.53-1.81-2.28-2.63-.37-.42-.78-.86-1.24-1.35-.24-.26-.48-.52-.74-.78-.59-.61-1.07-1.1-1.54-1.55-.14-.15-.27-.28-.38-.38h0l0,0c-.58-.58-1.23-1.19-2-1.93A73,73,0,0,0,47,73.68a8,8,0,0,0-3.39-.76Z"/><path d="M193.9,80.92a126.3,126.3,0,0,1,7.65,13.53c5.49,11.49,8.07,23.24,6.85,39.8a106.59,106.59,0,0,1-19.07,4,146.13,146.13,0,0,1-18.17,1.1,166.32,166.32,0,0,1-19.26-1.13c.09-.47.18-.94.28-1.41q.65-3.14,1.61-6.33c.11-.42.24-.83.38-1.25.2-.65.41-1.3.64-1.95.14-.41.28-.82.43-1.23s.38-1,.59-1.58.39-1,.59-1.5c.41-1,.85-2.06,1.31-3.08.23-.51.46-1,.7-1.53s.42-.88.64-1.32c.31-.64.63-1.28,1-1.92h0c.58-1.11,1.19-2.22,1.82-3.31.19-.34.38-.66.58-1,.4-.67.8-1.34,1.22-2s.82-1.28,1.24-1.92,1-1.48,1.52-2.2c.3-.43.6-.85.91-1.26s.68-.91,1-1.36.58-.75.88-1.12.67-.84,1-1.26h0c.67-.81,1.36-1.61,2.07-2.39.37-.42.75-.83,1.14-1.24q.28-.31.6-.63c.52-.54,1.05-1.08,1.6-1.61a2.55,2.55,0,0,1,.23-.24c.6-.59,1.22-1.17,1.84-1.74A65.1,65.1,0,0,1,193.9,80.92m0-8a7.87,7.87,0,0,0-3.4.76A73,73,0,0,0,172.35,86c-.83.76-1.48,1.37-2.06,2l0,0c-.11.11-.24.23-.37.37-.47.46-1,.95-1.54,1.56q-.39.39-.75.78c-.46.49-.87.93-1.24,1.35-.75.82-1.51,1.71-2.27,2.63l-.19.23c-.32.39-.63.77-.95,1.18s-.63.79-.94,1.2l-1.1,1.45c-.31.42-.64.87-1,1.42-.56.77-1.12,1.58-1.67,2.41s-.91,1.39-1.34,2.07-.9,1.47-1.32,2.17c-.21.35-.44.73-.66,1.13-.68,1.17-1.33,2.37-2,3.57l-.11.21c-.3.58-.61,1.2-1,1.89-.23.47-.46.94-.68,1.41s-.52,1.13-.77,1.68c-.53,1.16-1,2.31-1.45,3.41-.21.52-.42,1-.62,1.57s-.38,1-.56,1.48l-.08.24c-.17.45-.32.9-.48,1.36-.23.65-.46,1.35-.7,2.13-.14.41-.3.94-.46,1.51-.69,2.33-1.28,4.65-1.74,6.88-.11.51-.21,1-.31,1.53A8,8,0,0,0,151,146.2a176.65,176.65,0,0,0,20.18,1.18,154.49,154.49,0,0,0,19.17-1.16,114.9,114.9,0,0,0,20.49-4.34,8,8,0,0,0,5.56-7c1.23-16.73-1.12-30.25-7.61-43.84a134.18,134.18,0,0,0-8.12-14.38,8,8,0,0,0-6.75-3.7Z"/></g></g></svg>