<svg xmlns="http://www.w3.org/2000/svg" xmlns:xlink="http://www.w3.org/1999/xlink" viewBox="0 0 239.5 239.51"><defs><style>.cls-1{fill:#fff;}.cls-2{fill:url(#linear-gradient);}.cls-3{fill:url(#linear-gradient-2);}.cls-4{fill:url(#linear-gradient-3);}.cls-5{fill:url(#linear-gradient-4);}.cls-6{fill:url(#linear-gradient-5);}.cls-7{fill:url(#linear-gradient-6);}.cls-8{fill:url(#linear-gradient-7);}.cls-9{fill:url(#linear-gradient-8);}.cls-10{fill:url(#linear-gradient-9);}.cls-11{fill:url(#linear-gradient-10);}.cls-12{fill:url(#linear-gradient-11);}.cls-13{fill:url(#linear-gradient-12);}.cls-14{fill:url(#linear-gradient-13);}.cls-15{fill:url(#linear-gradient-14);}.cls-16{fill:url(#linear-gradient-15);}.cls-17{fill:url(#linear-gradient-16);}.cls-18{fill:url(#linear-gradient-17);}.cls-19{fill:url(#linear-gradient-18);}.cls-20{fill:url(#linear-gradient-19);}.cls-21{fill:url(#linear-gradient-20);}.cls-22{fill:url(#linear-gradient-21);}.cls-23{fill:url(#linear-gradient-22);}.cls-24{fill:url(#linear-gradient-23);}.cls-25{fill:url(#linear-gradient-24);}.cls-26{fill:#930009;}.cls-27{fill:#e6e6e6;}.cls-28{fill:url(#linear-gradient-25);}.cls-29{fill:url(#linear-gradient-26);}.cls-30{fill:url(#linear-gradient-27);}.cls-31{fill:url(#linear-gradient-28);}.cls-32{fill:url(#linear-gradient-29);}.cls-33{fill:url(#linear-gradient-30);}.cls-34{fill:url(#linear-gradient-31);}.cls-35{fill:url(#linear-gradient-32);}.cls-36{fill:url(#linear-gradient-33);}.cls-37{fill:#1a4c36;}</style><linearGradient id="linear-gradient" x1="63.53" y1="212.82" x2="63.53" y2="35.3" gradientUnits="userSpaceOnUse"><stop offset="0" stop-color="#4c8d62"/><stop offset="0.66" stop-color="#66bf85"/><stop offset="1" stop-color="#8dd1a8"/></linearGradient><linearGradient id="linear-gradient-2" x1="54.2" y1="212.82" x2="54.2" y2="35.3" xlink:href="#linear-gradient"/><linearGradient id="linear-gradient-3" x1="58.83" y1="212.84" x2="58.83" y2="35.28" xlink:href="#linear-gradient"/><linearGradient id="linear-gradient-4" x1="185.23" y1="212.81" x2="185.23" y2="35.32" xlink:href="#linear-gradient"/><linearGradient id="linear-gradient-5" x1="175.96" y1="212.91" x2="175.96" y2="35.17" xlink:href="#linear-gradient"/><linearGradient id="linear-gradient-6" x1="180.63" y1="212.84" x2="180.63" y2="35.27" xlink:href="#linear-gradient"/><linearGradient id="linear-gradient-7" x1="78.39" y1="212.79" x2="78.39" y2="35.35" xlink:href="#linear-gradient"/><linearGradient id="linear-gradient-8" x1="68.57" y1="212.73" x2="68.57" y2="35.44" xlink:href="#linear-gradient"/><linearGradient id="linear-gradient-9" x1="84.12" y1="212.81" x2="84.12" y2="35.32" xlink:href="#linear-gradient"/><linearGradient id="linear-gradient-10" x1="73.4" y1="212.79" x2="73.4" y2="35.35" xlink:href="#linear-gradient"/><linearGradient id="linear-gradient-11" x1="170.92" y1="212.73" x2="170.92" y2="35.44" xlink:href="#linear-gradient"/><linearGradient id="linear-gradient-12" x1="119.75" y1="212.81" x2="119.75" y2="35.32" xlink:href="#linear-gradient"/><linearGradient id="linear-gradient-13" x1="161.12" y1="212.78" x2="161.12" y2="35.37" xlink:href="#linear-gradient"/><linearGradient id="linear-gradient-14" x1="155.37" y1="212.82" x2="155.37" y2="35.31" xlink:href="#linear-gradient"/><linearGradient id="linear-gradient-15" x1="166.13" y1="212.78" x2="166.13" y2="35.37" xlink:href="#linear-gradient"/><linearGradient id="linear-gradient-16" x1="41.77" y1="212.81" x2="41.77" y2="35.32" xlink:href="#linear-gradient"/><linearGradient id="linear-gradient-17" x1="41.77" y1="134.14" x2="41.77" y2="65.2" gradientUnits="userSpaceOnUse"><stop offset="0" stop-color="#fff"/><stop offset="1" stop-color="#868686"/></linearGradient><linearGradient id="linear-gradient-18" x1="86.45" y1="212.8" x2="86.45" y2="35.32" xlink:href="#linear-gradient"/><linearGradient id="linear-gradient-19" x1="48.5" y1="140.44" x2="86.59" y2="140.44" gradientUnits="userSpaceOnUse"><stop offset="0.03" stop-color="#7c0006"/><stop offset="1" stop-color="red"/></linearGradient><linearGradient id="linear-gradient-20" x1="67.54" y1="212.81" x2="67.54" y2="35.32" xlink:href="#linear-gradient"/><linearGradient id="linear-gradient-21" x1="67.54" y1="134.14" x2="67.54" y2="65.2" xlink:href="#linear-gradient-17"/><linearGradient id="linear-gradient-22" x1="48.49" y1="124" x2="86.59" y2="124" xlink:href="#linear-gradient-19"/><linearGradient id="linear-gradient-23" x1="48.85" y1="212.81" x2="48.85" y2="35.32" xlink:href="#linear-gradient"/><linearGradient id="linear-gradient-24" x1="48.85" y1="153.64" x2="48.85" y2="65.03" xlink:href="#linear-gradient-17"/><linearGradient id="linear-gradient-25" x1="197.72" y1="212.81" x2="197.72" y2="35.32" xlink:href="#linear-gradient"/><linearGradient id="linear-gradient-26" x1="197.72" y1="122.64" x2="197.72" y2="60.62" xlink:href="#linear-gradient-17"/><linearGradient id="linear-gradient-27" x1="153.04" y1="212.8" x2="153.04" y2="35.32" xlink:href="#linear-gradient"/><linearGradient id="linear-gradient-28" x1="152.9" y1="140.44" x2="191.01" y2="140.44" gradientUnits="userSpaceOnUse"><stop offset="0" stop-color="red"/><stop offset="0.97" stop-color="#7c0006"/></linearGradient><linearGradient id="linear-gradient-29" x1="171.95" y1="212.81" x2="171.95" y2="35.32" xlink:href="#linear-gradient"/><linearGradient id="linear-gradient-30" x1="171.95" y1="122.64" x2="171.95" y2="60.62" xlink:href="#linear-gradient-17"/><linearGradient id="linear-gradient-31" x1="152.9" y1="124" x2="191" y2="124" xlink:href="#linear-gradient-28"/><linearGradient id="linear-gradient-32" x1="190.65" y1="212.81" x2="190.65" y2="35.32" xlink:href="#linear-gradient"/><linearGradient id="linear-gradient-33" x1="190.65" y1="126.64" x2="190.65" y2="80.04" xlink:href="#linear-gradient-17"/></defs><title>Ресурс 8xhdpi</title><g id="Слой_2" data-name="Слой 2"><g id="Layer_1" data-name="Layer 1"><path class="cls-1" d="M119.75,10A109.91,109.91,0,0,0,11.16,103.8,114.8,114.8,0,0,1,119.75,26.23c3.32,0,6.6.15,9.85.43a6.88,6.88,0,0,1,4.1.41,114.87,114.87,0,0,1,94.64,76.73A109.92,109.92,0,0,0,119.75,10Z"/><path class="cls-1" d="M64.51,142.23c-.65,0-1.31,0-2,0C63.2,142.22,63.86,142.22,64.51,142.23Z"/><path class="cls-2" d="M64.51,142.23c-.65,0-1.31,0-2,0C63.2,142.22,63.86,142.22,64.51,142.23Z"/><path class="cls-1" d="M54.9,141.75c-.46,0-.94-.06-1.4-.11C54,141.69,54.44,141.71,54.9,141.75Z"/><path class="cls-3" d="M54.9,141.75c-.46,0-.94-.06-1.4-.11C54,141.69,54.44,141.71,54.9,141.75Z"/><path class="cls-1" d="M59.69,142.07,58,142Z"/><path class="cls-4" d="M59.69,142.07,58,142Z"/><path class="cls-1" d="M186,141.64c-.5.05-1,.08-1.52.12C185,141.72,185.49,141.69,186,141.64Z"/><path class="cls-5" d="M186,141.64c-.5.05-1,.08-1.52.12C185,141.72,185.49,141.69,186,141.64Z"/><path class="cls-1" d="M176.94,142.2c-.65,0-1.31,0-2,0C175.63,142.22,176.29,142.22,176.94,142.2Z"/><path class="cls-6" d="M176.94,142.2c-.65,0-1.31,0-2,0C175.63,142.22,176.29,142.22,176.94,142.2Z"/><path class="cls-1" d="M181.52,142l-1.78.08Z"/><path class="cls-7" d="M181.52,142l-1.78.08Z"/><path class="cls-1" d="M80,141.76l-3.23.24Z"/><path class="cls-8" d="M80,141.76l-3.23.24Z"/><path class="cls-1" d="M67.33,142.27c.85,0,1.72,0,2.58,0-.89,0-1.79,0-2.68,0Z"/><path class="cls-9" d="M67.33,142.27c.85,0,1.72,0,2.58,0-.89,0-1.79,0-2.68,0Z"/><path class="cls-1" d="M86.59,141.14c-1.65.19-3.3.36-4.94.5C83.29,141.5,84.94,141.33,86.59,141.14Z"/><path class="cls-10" d="M86.59,141.14c-1.65.19-3.3.36-4.94.5C83.29,141.5,84.94,141.33,86.59,141.14Z"/><path class="cls-1" d="M74.83,142.08c-1,0-1.92.1-2.87.12C72.91,142.18,73.87,142.13,74.83,142.08Z"/><path class="cls-11" d="M74.83,142.08c-1,0-1.92.1-2.87.12C72.91,142.18,73.87,142.13,74.83,142.08Z"/><path class="cls-1" d="M172.16,142.27h.1c-.88,0-1.78,0-2.67,0C170.45,142.25,171.31,142.27,172.16,142.27Z"/><path class="cls-12" d="M172.16,142.27h.1c-.88,0-1.78,0-2.67,0C170.45,142.25,171.31,142.27,172.16,142.27Z"/><path class="cls-1" d="M133.7,27.07a6.92,6.92,0,0,1,4.07,4.78c1.61,6.6,3.28,16.76,1.77,26.68a6.85,6.85,0,0,1-.67,2.08c-6.43,12.56-18.36,24.11-25.08,30a7,7,0,0,1-9.55-.26C98.77,85,89.74,75.53,84.36,66.57a7,7,0,0,1,.74-8.2A114.33,114.33,0,0,1,128.36,27a6.44,6.44,0,0,1,1.24-.36c-3.25-.28-6.53-.43-9.85-.43A114.8,114.8,0,0,0,11.16,103.8a109.76,109.76,0,1,0,218.34,16,109,109,0,0,0-1.16-16A114.87,114.87,0,0,0,133.7,27.07Zm6,129.39a4,4,0,0,1,.89,5.58,22.91,22.91,0,0,0-2.94,5.55,4,4,0,0,1-3.83,2.86,4.29,4.29,0,0,1-1.16-.17,4,4,0,0,1-2.68-5,30.58,30.58,0,0,1,4.14-8A4,4,0,0,1,139.74,156.46ZM122.82,91.73c1.69-1.65,3.84-3.73,5.9-5.63a3.61,3.61,0,0,1,6,2.2c.47,3.8.69,6.14.79,7.48a3.59,3.59,0,0,1-.92,2.67L133,100.24a3.61,3.61,0,0,1-4.75.53l-5-3.52A3.6,3.6,0,0,1,122.82,91.73ZM99.76,156.46a4,4,0,0,1,5.58.88,31,31,0,0,1,4.13,8,4,4,0,0,1-2.68,5,4.16,4.16,0,0,1-1.15.17,4,4,0,0,1-3.83-2.86,23,23,0,0,0-3-5.55A4,4,0,0,1,99.76,156.46ZM84.55,92.14l.91-2a3.43,3.43,0,0,1,3.8-1.95l5.86,1.2a3.4,3.4,0,0,1,2.57,4.39l-1.43,4.47A3.42,3.42,0,0,1,91.07,100l-5.33-3.65A3.42,3.42,0,0,1,84.55,92.14ZM22.11,137.73c-1.23-16.73,1.12-30.25,7.61-43.82a134.07,134.07,0,0,1,8.12-14.4,8,8,0,0,1,6.76-3.7,7.86,7.86,0,0,1,3.39.76A73,73,0,0,1,66.17,88.86c.8.74,1.45,1.35,2,1.93l0,0h0c.11.1.24.23.38.38.47.45,1,.94,1.54,1.55.26.26.51.52.74.78.46.49.87.93,1.24,1.35.75.82,1.51,1.71,2.28,2.63l.18.23c.32.38.63.77,1,1.18s.63.79.94,1.2.74,1,1.1,1.45.65.87,1,1.42c.55.77,1.11,1.58,1.68,2.44q.68,1,1.32,2c.47.74.9,1.45,1.31,2.15l.68,1.15c.67,1.17,1.33,2.37,2,3.57a2.12,2.12,0,0,1,.11.21c.3.58.62,1.2.95,1.89l.7,1.44c.26.55.51,1.1.76,1.65.52,1.16,1,2.31,1.44,3.4.21.53.42,1,.62,1.58s.38,1,.56,1.48l.09.24c.16.45.32.9.47,1.36.23.65.46,1.35.7,2.13.14.41.31.94.46,1.51.7,2.33,1.28,4.64,1.74,6.87.11.52.21,1,.31,1.55a8,8,0,0,1-6.93,9.45,176.82,176.82,0,0,1-20.19,1.18,153.93,153.93,0,0,1-19.15-1.16,115,115,0,0,1-20.51-4.34A8,8,0,0,1,22.11,137.73Zm181.26,39.72c-2.77,2.25-7.43,5-15.15,7.4-7.33,2.3-15.94,2.29-24.27,2.29s-16.49,0-21.71,2.4a44.66,44.66,0,0,0-9.05,5.56c-3.55,2.68-6.61,5-13.44,5s-9.9-2.31-13.44-5a45.24,45.24,0,0,0-9-5.56c-5.22-2.41-13.22-2.4-21.72-2.4-8.33,0-16.93,0-24.26-2.29-8-2.52-12.77-5.64-15.52-8.21A4,4,0,0,1,37,170h0a4,4,0,0,1,4.18.8c1.8,1.69,5.46,4.25,12.48,6.45,6.16,1.93,14.14,1.92,21.86,1.92,9.39,0,18.26,0,25.08,3.14a51.84,51.84,0,0,1,10.52,6.44c3.07,2.32,4.47,3.37,8.62,3.37s5.55-1.05,8.62-3.37a52,52,0,0,1,10.51-6.44c6.82-3.15,15.71-3.15,25.08-3.14,7.73,0,15.71,0,21.86-1.92,6.84-2.14,10.55-4.41,12.44-5.93a4,4,0,0,1,4.25-.48l.11.05A3.94,3.94,0,0,1,203.37,177.45Zm6.4-83.56c6.49,13.59,8.84,27.11,7.61,43.84a8,8,0,0,1-5.56,7,114.9,114.9,0,0,1-20.49,4.34,154.49,154.49,0,0,1-19.17,1.16A176.65,176.65,0,0,1,152,149.09a8,8,0,0,1-6.94-9.46c.1-.51.2-1,.31-1.54.46-2.23,1.05-4.54,1.74-6.87.16-.57.33-1.1.46-1.51.24-.78.47-1.48.7-2.13.16-.46.31-.91.48-1.36l.08-.24c.18-.49.37-1,.56-1.48s.41-1,.62-1.57c.44-1.1.92-2.25,1.45-3.41.25-.55.49-1.1.77-1.69l.68-1.4c.34-.69.65-1.31,1-1.89l.11-.21c.63-1.2,1.28-2.4,2-3.57.22-.4.45-.78.66-1.13.42-.7.85-1.42,1.32-2.17s.88-1.36,1.34-2.07,1.11-1.64,1.67-2.41c.38-.55.71-1,1-1.42l1.1-1.45c.31-.41.62-.8.94-1.2s.63-.79.95-1.18l.19-.23c.76-.92,1.53-1.81,2.27-2.63.37-.42.78-.86,1.24-1.35q.36-.39.75-.78c.58-.61,1.07-1.1,1.54-1.56.13-.14.26-.26.37-.37l0,0c.58-.58,1.23-1.19,2.06-2A73,73,0,0,1,191.5,76.57a7.87,7.87,0,0,1,3.4-.76,8,8,0,0,1,6.75,3.7A134.18,134.18,0,0,1,209.77,93.89Z"/><path class="cls-13" d="M133.7,27.07a6.92,6.92,0,0,1,4.07,4.78c1.61,6.6,3.28,16.76,1.77,26.68a6.85,6.85,0,0,1-.67,2.08c-6.43,12.56-18.36,24.11-25.08,30a7,7,0,0,1-9.55-.26C98.77,85,89.74,75.53,84.36,66.57a7,7,0,0,1,.74-8.2A114.33,114.33,0,0,1,128.36,27a6.44,6.44,0,0,1,1.24-.36c-3.25-.28-6.53-.43-9.85-.43A114.8,114.8,0,0,0,11.16,103.8a109.76,109.76,0,1,0,218.34,16,109,109,0,0,0-1.16-16A114.87,114.87,0,0,0,133.7,27.07Zm6,129.39a4,4,0,0,1,.89,5.58,22.91,22.91,0,0,0-2.94,5.55,4,4,0,0,1-3.83,2.86,4.29,4.29,0,0,1-1.16-.17,4,4,0,0,1-2.68-5,30.58,30.58,0,0,1,4.14-8A4,4,0,0,1,139.74,156.46ZM122.82,91.73c1.69-1.65,3.84-3.73,5.9-5.63a3.61,3.61,0,0,1,6,2.2c.47,3.8.69,6.14.79,7.48a3.59,3.59,0,0,1-.92,2.67L133,100.24a3.61,3.61,0,0,1-4.75.53l-5-3.52A3.6,3.6,0,0,1,122.82,91.73ZM99.76,156.46a4,4,0,0,1,5.58.88,31,31,0,0,1,4.13,8,4,4,0,0,1-2.68,5,4.16,4.16,0,0,1-1.15.17,4,4,0,0,1-3.83-2.86,23,23,0,0,0-3-5.55A4,4,0,0,1,99.76,156.46ZM84.55,92.14l.91-2a3.43,3.43,0,0,1,3.8-1.95l5.86,1.2a3.4,3.4,0,0,1,2.57,4.39l-1.43,4.47A3.42,3.42,0,0,1,91.07,100l-5.33-3.65A3.42,3.42,0,0,1,84.55,92.14ZM22.11,137.73c-1.23-16.73,1.12-30.25,7.61-43.82a134.07,134.07,0,0,1,8.12-14.4,8,8,0,0,1,6.76-3.7,7.86,7.86,0,0,1,3.39.76A73,73,0,0,1,66.17,88.86c.8.74,1.45,1.35,2,1.93l0,0h0c.11.1.24.23.38.38.47.45,1,.94,1.54,1.55.26.26.51.52.74.78.46.49.87.93,1.24,1.35.75.82,1.51,1.71,2.28,2.63l.18.23c.32.38.63.77,1,1.18s.63.79.94,1.2.74,1,1.1,1.45.65.87,1,1.42c.55.77,1.11,1.58,1.68,2.44q.68,1,1.32,2c.47.74.9,1.45,1.31,2.15l.68,1.15c.67,1.17,1.33,2.37,2,3.57a2.12,2.12,0,0,1,.11.21c.3.58.62,1.2.95,1.89l.7,1.44c.26.55.51,1.1.76,1.65.52,1.16,1,2.31,1.44,3.4.21.53.42,1,.62,1.58s.38,1,.56,1.48l.09.24c.16.45.32.9.47,1.36.23.65.46,1.35.7,2.13.14.41.31.94.46,1.51.7,2.33,1.28,4.64,1.74,6.87.11.52.21,1,.31,1.55a8,8,0,0,1-6.93,9.45,176.82,176.82,0,0,1-20.19,1.18,153.93,153.93,0,0,1-19.15-1.16,115,115,0,0,1-20.51-4.34A8,8,0,0,1,22.11,137.73Zm181.26,39.72c-2.77,2.25-7.43,5-15.15,7.4-7.33,2.3-15.94,2.29-24.27,2.29s-16.49,0-21.71,2.4a44.66,44.66,0,0,0-9.05,5.56c-3.55,2.68-6.61,5-13.44,5s-9.9-2.31-13.44-5a45.24,45.24,0,0,0-9-5.56c-5.22-2.41-13.22-2.4-21.72-2.4-8.33,0-16.93,0-24.26-2.29-8-2.52-12.77-5.64-15.52-8.21A4,4,0,0,1,37,170h0a4,4,0,0,1,4.18.8c1.8,1.69,5.46,4.25,12.48,6.45,6.16,1.93,14.14,1.92,21.86,1.92,9.39,0,18.26,0,25.08,3.14a51.84,51.84,0,0,1,10.52,6.44c3.07,2.32,4.47,3.37,8.62,3.37s5.55-1.05,8.62-3.37a52,52,0,0,1,10.51-6.44c6.82-3.15,15.71-3.15,25.08-3.14,7.73,0,15.71,0,21.86-1.92,6.84-2.14,10.55-4.41,12.44-5.93a4,4,0,0,1,4.25-.48l.11.05A3.94,3.94,0,0,1,203.37,177.45Zm6.4-83.56c6.49,13.59,8.84,27.11,7.61,43.84a8,8,0,0,1-5.56,7,114.9,114.9,0,0,1-20.49,4.34,154.49,154.49,0,0,1-19.17,1.16A176.65,176.65,0,0,1,152,149.09a8,8,0,0,1-6.94-9.46c.1-.51.2-1,.31-1.54.46-2.23,1.05-4.54,1.74-6.87.16-.57.33-1.1.46-1.51.24-.78.47-1.48.7-2.13.16-.46.31-.91.48-1.36l.08-.24c.18-.49.37-1,.56-1.48s.41-1,.62-1.57c.44-1.1.92-2.25,1.45-3.41.25-.55.49-1.1.77-1.69l.68-1.4c.34-.69.65-1.31,1-1.89l.11-.21c.63-1.2,1.28-2.4,2-3.57.22-.4.45-.78.66-1.13.42-.7.85-1.42,1.32-2.17s.88-1.36,1.34-2.07,1.11-1.64,1.67-2.41c.38-.55.71-1,1-1.42l1.1-1.45c.31-.41.62-.8.94-1.2s.63-.79.95-1.18l.19-.23c.76-.92,1.53-1.81,2.27-2.63.37-.42.78-.86,1.24-1.35q.36-.39.75-.78c.58-.61,1.07-1.1,1.54-1.56.13-.14.26-.26.37-.37l0,0c.58-.58,1.23-1.19,2.06-2A73,73,0,0,1,191.5,76.57a7.87,7.87,0,0,1,3.4-.76,8,8,0,0,1,6.75,3.7A134.18,134.18,0,0,1,209.77,93.89Z"/><path class="cls-1" d="M162.72,142l-3.21-.24Z"/><path class="cls-14" d="M162.72,142l-3.21-.24Z"/><path class="cls-1" d="M157.84,141.64c-1.64-.14-3.28-.31-4.94-.5C154.56,141.33,156.2,141.5,157.84,141.64Z"/><path class="cls-15" d="M157.84,141.64c-1.64-.14-3.28-.31-4.94-.5C154.56,141.33,156.2,141.5,157.84,141.64Z"/><path class="cls-1" d="M167.53,142.2c-.93,0-1.87-.07-2.81-.12C165.66,142.13,166.6,142.18,167.53,142.2Z"/><path class="cls-16" d="M167.53,142.2c-.93,0-1.87-.07-2.81-.12C165.66,142.13,166.6,142.18,167.53,142.2Z"/><path d="M119.75,0A119.73,119.73,0,1,0,233.23,158.05a118,118,0,0,0,3.26-11.52A119.84,119.84,0,0,0,119.75,0ZM229.5,119.75a109.71,109.71,0,1,1-1.16-16A110,110,0,0,1,229.5,119.75Z"/><path class="cls-1" d="M48.49,131.56a63.28,63.28,0,0,1,5.25-25.84,108.23,108.23,0,0,0-16.8-8.38c-5.49,11.49-8.07,23.24-6.85,39.8a106.59,106.59,0,0,0,19.07,4A68.38,68.38,0,0,1,48.49,131.56Z"/><path class="cls-17" d="M48.49,131.56a63.28,63.28,0,0,1,5.25-25.84,108.23,108.23,0,0,0-16.8-8.38c-5.49,11.49-8.07,23.24-6.85,39.8a106.59,106.59,0,0,0,19.07,4A68.38,68.38,0,0,1,48.49,131.56Z"/><path class="cls-18" d="M48.49,131.56a63.28,63.28,0,0,1,5.25-25.84,108.23,108.23,0,0,0-16.8-8.38c-5.49,11.49-8.07,23.24-6.85,39.8a106.59,106.59,0,0,0,19.07,4A68.38,68.38,0,0,1,48.49,131.56Z"/><path class="cls-1" d="M86.59,141.14c-.09-.47-.18-.94-.28-1.41.1.46.19.93.27,1.39Z"/><path class="cls-19" d="M86.59,141.14c-.09-.47-.18-.94-.28-1.41.1.46.19.93.27,1.39Z"/><path class="cls-20" d="M86.59,141.14c-.09-.47-.18-.94-.28-1.41.1.46.19.93.27,1.39Z"/><path class="cls-1" d="M77.41,126.34c-1,4.93-2.57,8.09-4.32,8.1-2.79,0-5.1-8-5.49-18.42a95.81,95.81,0,0,0-13.86-10.3,63.28,63.28,0,0,0-5.25,25.84,68.38,68.38,0,0,0,.67,9.61c1.43.18,2.88.34,4.34.47.46.05.94.07,1.4.11,1,.09,2,.18,3.07.24l1.72.08c1,.05,1.9.1,2.86.13.65,0,1.31,0,2,0,.91,0,1.81,0,2.72,0s1.79,0,2.68,0l2,0c1,0,1.91-.07,2.87-.12l1.94-.08,3.23-.24c.55,0,1.1-.07,1.65-.12,1.64-.14,3.29-.31,4.94-.5v0C86.42,140.69,83.92,134.44,77.41,126.34Z"/><path class="cls-21" d="M77.41,126.34c-1,4.93-2.57,8.09-4.32,8.1-2.79,0-5.1-8-5.49-18.42a95.81,95.81,0,0,0-13.86-10.3,63.28,63.28,0,0,0-5.25,25.84,68.38,68.38,0,0,0,.67,9.61c1.43.18,2.88.34,4.34.47.46.05.94.07,1.4.11,1,.09,2,.18,3.07.24l1.72.08c1,.05,1.9.1,2.86.13.65,0,1.31,0,2,0,.91,0,1.81,0,2.72,0s1.79,0,2.68,0l2,0c1,0,1.91-.07,2.87-.12l1.94-.08,3.23-.24c.55,0,1.1-.07,1.65-.12,1.64-.14,3.29-.31,4.94-.5v0C86.42,140.69,83.92,134.44,77.41,126.34Z"/><path class="cls-22" d="M77.41,126.34c-1,4.93-2.57,8.09-4.32,8.1-2.79,0-5.1-8-5.49-18.42a95.81,95.81,0,0,0-13.86-10.3,63.28,63.28,0,0,0-5.25,25.84,68.38,68.38,0,0,0,.67,9.61c1.43.18,2.88.34,4.34.47.46.05.94.07,1.4.11,1,.09,2,.18,3.07.24l1.72.08c1,.05,1.9.1,2.86.13.65,0,1.31,0,2,0,.91,0,1.81,0,2.72,0s1.79,0,2.68,0l2,0c1,0,1.91-.07,2.87-.12l1.94-.08,3.23-.24c.55,0,1.1-.07,1.65-.12,1.64-.14,3.29-.31,4.94-.5v0C86.42,140.69,83.92,134.44,77.41,126.34Z"/><path class="cls-23" d="M77.41,126.34c-1,4.93-2.57,8.09-4.32,8.1-2.79,0-5.1-8-5.49-18.42a95.81,95.81,0,0,0-13.86-10.3,63.28,63.28,0,0,0-5.25,25.84,68.38,68.38,0,0,0,.67,9.61c1.43.18,2.88.34,4.34.47.46.05.94.07,1.4.11,1,.09,2,.18,3.07.24l1.72.08c1,.05,1.9.1,2.86.13.65,0,1.31,0,2,0,.91,0,1.81,0,2.72,0s1.79,0,2.68,0l2,0c1,0,1.91-.07,2.87-.12l1.94-.08,3.23-.24c.55,0,1.1-.07,1.65-.12,1.64-.14,3.29-.31,4.94-.5v0C86.42,140.69,83.92,134.44,77.41,126.34Z"/><path class="cls-1" d="M73.09,134.44c1.75,0,3.32-3.17,4.32-8.1A87.24,87.24,0,0,0,67.6,116C68,126.43,70.3,134.44,73.09,134.44Z"/><path class="cls-1" d="M60.75,94.75A65.1,65.1,0,0,0,44.59,83.81a126.3,126.3,0,0,0-7.65,13.53,108.23,108.23,0,0,1,16.8,8.38A42.38,42.38,0,0,1,60.75,94.75Z"/><path class="cls-24" d="M60.75,94.75A65.1,65.1,0,0,0,44.59,83.81a126.3,126.3,0,0,0-7.65,13.53,108.23,108.23,0,0,1,16.8,8.38A42.38,42.38,0,0,1,60.75,94.75Z"/><path class="cls-25" d="M60.75,94.75A65.1,65.1,0,0,0,44.59,83.81a126.3,126.3,0,0,0-7.65,13.53,108.23,108.23,0,0,1,16.8,8.38A42.38,42.38,0,0,1,60.75,94.75Z"/><path class="cls-26" d="M67.6,116q-.06-1.45-.06-3a72.06,72.06,0,0,1,.69-10.44h0c-.67-.81-1.36-1.61-2.07-2.39-.37-.42-.75-.83-1.14-1.24q-.28-.31-.6-.63c-.52-.54-1.05-1.08-1.6-1.61a2.55,2.55,0,0,0-.23-.24c-.6-.59-1.22-1.17-1.84-1.74a42.38,42.38,0,0,0-7,11A95.81,95.81,0,0,1,67.6,116Z"/><path class="cls-27" d="M67.6,116a87.24,87.24,0,0,1,9.81,10.32,57.9,57.9,0,0,0,1-8.3h0c-.58-1.11-1.19-2.22-1.82-3.31-.19-.34-.38-.66-.58-1-.4-.67-.8-1.34-1.22-2s-.82-1.28-1.24-1.92-1-1.48-1.52-2.2c-.3-.43-.6-.85-.91-1.26s-.68-.91-1-1.36-.58-.75-.88-1.12-.67-.84-1-1.26a72.06,72.06,0,0,0-.69,10.44Q67.54,114.57,67.6,116Z"/><path class="cls-26" d="M86.58,141.12c-.08-.46-.17-.93-.27-1.39q-.65-3.14-1.61-6.33c-.11-.42-.24-.83-.38-1.25-.2-.65-.41-1.3-.64-2-.14-.41-.28-.82-.43-1.23s-.38-1-.59-1.58-.39-1-.59-1.5c-.41-1-.85-2.06-1.31-3.08-.23-.51-.46-1-.7-1.53s-.42-.88-.64-1.32c-.31-.64-.63-1.28-1-1.92a57.9,57.9,0,0,1-1,8.3C83.92,134.44,86.42,140.69,86.58,141.12Z"/><path class="cls-1" d="M191,131.56a68.38,68.38,0,0,1-.67,9.61,106.59,106.59,0,0,0,19.07-4c1.22-16.56-1.36-28.31-6.85-39.8a108.23,108.23,0,0,0-16.8,8.38A63.28,63.28,0,0,1,191,131.56Z"/><path class="cls-28" d="M191,131.56a68.38,68.38,0,0,1-.67,9.61,106.59,106.59,0,0,0,19.07-4c1.22-16.56-1.36-28.31-6.85-39.8a108.23,108.23,0,0,0-16.8,8.38A63.28,63.28,0,0,1,191,131.56Z"/><path class="cls-29" d="M191,131.56a68.38,68.38,0,0,1-.67,9.61,106.59,106.59,0,0,0,19.07-4c1.22-16.56-1.36-28.31-6.85-39.8a108.23,108.23,0,0,0-16.8,8.38A63.28,63.28,0,0,1,191,131.56Z"/><path class="cls-1" d="M153.18,139.73c-.1.47-.19.94-.28,1.41v0C153,140.66,153.08,140.19,153.18,139.73Z"/><path class="cls-30" d="M153.18,139.73c-.1.47-.19.94-.28,1.41v0C153,140.66,153.08,140.19,153.18,139.73Z"/><path class="cls-31" d="M153.18,139.73c-.1.47-.19.94-.28,1.41v0C153,140.66,153.08,140.19,153.18,139.73Z"/><path class="cls-1" d="M185.75,105.72A95.81,95.81,0,0,0,171.89,116c-.39,10.41-2.7,18.42-5.49,18.42-1.75,0-3.32-3.17-4.32-8.1-6.51,8.1-9,14.35-9.17,14.78v0c1.66.19,3.3.36,4.94.5l1.67.12,3.21.24,2,.08c.94,0,1.88.1,2.81.12l2.06,0c.89,0,1.79,0,2.67,0s1.81,0,2.72,0c.65,0,1.31,0,2,0,.95,0,1.87-.08,2.8-.13l1.78-.08c1-.06,2-.15,2.95-.23.51,0,1-.07,1.52-.12,1.47-.13,2.92-.29,4.34-.47a68.38,68.38,0,0,0,.67-9.61A63.28,63.28,0,0,0,185.75,105.72Z"/><path class="cls-32" d="M185.75,105.72A95.81,95.81,0,0,0,171.89,116c-.39,10.41-2.7,18.42-5.49,18.42-1.75,0-3.32-3.17-4.32-8.1-6.51,8.1-9,14.35-9.17,14.78v0c1.66.19,3.3.36,4.94.5l1.67.12,3.21.24,2,.08c.94,0,1.88.1,2.81.12l2.06,0c.89,0,1.79,0,2.67,0s1.81,0,2.72,0c.65,0,1.31,0,2,0,.95,0,1.87-.08,2.8-.13l1.78-.08c1-.06,2-.15,2.95-.23.51,0,1-.07,1.52-.12,1.47-.13,2.92-.29,4.34-.47a68.38,68.38,0,0,0,.67-9.61A63.28,63.28,0,0,0,185.75,105.72Z"/><path class="cls-33" d="M185.75,105.72A95.81,95.81,0,0,0,171.89,116c-.39,10.41-2.7,18.42-5.49,18.42-1.75,0-3.32-3.17-4.32-8.1-6.51,8.1-9,14.35-9.17,14.78v0c1.66.19,3.3.36,4.94.5l1.67.12,3.21.24,2,.08c.94,0,1.88.1,2.81.12l2.06,0c.89,0,1.79,0,2.67,0s1.81,0,2.72,0c.65,0,1.31,0,2,0,.95,0,1.87-.08,2.8-.13l1.78-.08c1-.06,2-.15,2.95-.23.51,0,1-.07,1.52-.12,1.47-.13,2.92-.29,4.34-.47a68.38,68.38,0,0,0,.67-9.61A63.28,63.28,0,0,0,185.75,105.72Z"/><path class="cls-34" d="M185.75,105.72A95.81,95.81,0,0,0,171.89,116c-.39,10.41-2.7,18.42-5.49,18.42-1.75,0-3.32-3.17-4.32-8.1-6.51,8.1-9,14.35-9.17,14.78v0c1.66.19,3.3.36,4.94.5l1.67.12,3.21.24,2,.08c.94,0,1.88.1,2.81.12l2.06,0c.89,0,1.79,0,2.67,0s1.81,0,2.72,0c.65,0,1.31,0,2,0,.95,0,1.87-.08,2.8-.13l1.78-.08c1-.06,2-.15,2.95-.23.51,0,1-.07,1.52-.12,1.47-.13,2.92-.29,4.34-.47a68.38,68.38,0,0,0,.67-9.61A63.28,63.28,0,0,0,185.75,105.72Z"/><path class="cls-1" d="M162.08,126.34c1,4.93,2.57,8.09,4.32,8.1,2.79,0,5.1-8,5.49-18.42A87.24,87.24,0,0,0,162.08,126.34Z"/><path class="cls-1" d="M178.74,94.75a42.38,42.38,0,0,1,7,11,108.23,108.23,0,0,1,16.8-8.38,126.3,126.3,0,0,0-7.65-13.53A65.1,65.1,0,0,0,178.74,94.75Z"/><path class="cls-35" d="M178.74,94.75a42.38,42.38,0,0,1,7,11,108.23,108.23,0,0,1,16.8-8.38,126.3,126.3,0,0,0-7.65-13.53A65.1,65.1,0,0,0,178.74,94.75Z"/><path class="cls-36" d="M178.74,94.75a42.38,42.38,0,0,1,7,11,108.23,108.23,0,0,1,16.8-8.38,126.3,126.3,0,0,0-7.65-13.53A65.1,65.1,0,0,0,178.74,94.75Z"/><path class="cls-26" d="M171.89,116a95.81,95.81,0,0,1,13.86-10.3,42.38,42.38,0,0,0-7-11c-.62.57-1.24,1.15-1.84,1.74a2.55,2.55,0,0,0-.23.24c-.55.53-1.08,1.07-1.6,1.61q-.31.31-.6.63c-.39.41-.77.82-1.14,1.24-.71.78-1.4,1.58-2.07,2.39h0a72.06,72.06,0,0,1,.69,10.44Q172,114.57,171.89,116Z"/><path class="cls-27" d="M171.89,116q.06-1.45.06-3a72.06,72.06,0,0,0-.69-10.44c-.35.42-.69.83-1,1.26s-.59.74-.88,1.12-.69.9-1,1.36-.61.83-.91,1.26c-.52.72-1,1.46-1.52,2.2s-.84,1.28-1.24,1.92-.82,1.33-1.22,2c-.2.33-.39.65-.58,1-.63,1.09-1.24,2.2-1.82,3.31h0a57.9,57.9,0,0,0,1,8.3A87.24,87.24,0,0,1,171.89,116Z"/><path class="cls-26" d="M162.08,126.34a57.9,57.9,0,0,1-1-8.3c-.34.64-.66,1.28-1,1.92-.22.44-.43.88-.64,1.32s-.47,1-.7,1.53c-.46,1-.9,2-1.31,3.08-.2.5-.4,1-.59,1.5s-.4,1.06-.59,1.58-.29.82-.43,1.23c-.23.65-.44,1.3-.64,2-.14.42-.27.83-.38,1.25q-1,3.19-1.61,6.33c-.1.46-.19.93-.27,1.39C153.07,140.69,155.57,134.44,162.08,126.34Z"/><path d="M202.62,170.86l-.11-.05a4,4,0,0,0-4.25.48c-1.89,1.52-5.6,3.79-12.44,5.93-6.15,1.93-14.13,1.92-21.86,1.92-9.37,0-18.26,0-25.08,3.14a52,52,0,0,0-10.51,6.44c-3.07,2.32-4.47,3.37-8.62,3.37s-5.55-1.05-8.62-3.37a51.84,51.84,0,0,0-10.52-6.44c-6.82-3.15-15.69-3.15-25.08-3.14-7.72,0-15.7,0-21.86-1.92-7-2.2-10.68-4.76-12.48-6.45A4,4,0,0,0,37,170h0a4,4,0,0,0-1.25,6.67c2.75,2.57,7.48,5.69,15.52,8.21,7.33,2.3,15.93,2.29,24.26,2.29,8.5,0,16.5,0,21.72,2.4a45.24,45.24,0,0,1,9,5.56c3.54,2.68,6.61,5,13.44,5s9.89-2.31,13.44-5a44.66,44.66,0,0,1,9.05-5.56c5.22-2.41,13.23-2.41,21.71-2.4s16.94,0,24.27-2.29c7.72-2.42,12.38-5.15,15.15-7.4A3.94,3.94,0,0,0,202.62,170.86Z"/><path d="M101.81,167.59a4,4,0,0,0,3.83,2.86,4.16,4.16,0,0,0,1.15-.17,4,4,0,0,0,2.68-5,31,31,0,0,0-4.13-8,4,4,0,0,0-6.48,4.7A23,23,0,0,1,101.81,167.59Z"/><path d="M134.16,157.34a30.58,30.58,0,0,0-4.14,8,4,4,0,0,0,2.68,5,4.29,4.29,0,0,0,1.16.17,4,4,0,0,0,3.83-2.86,22.91,22.91,0,0,1,2.94-5.55,4,4,0,0,0-6.47-4.7Z"/><path class="cls-37" d="M85.1,58.37a7,7,0,0,0-.74,8.2c5.38,9,14.41,18.44,19.88,23.8a7,7,0,0,0,9.55.26c6.72-5.91,18.65-17.46,25.08-30a6.85,6.85,0,0,0,.67-2.08c1.51-9.92-.16-20.08-1.77-26.68a7,7,0,0,0-8.17-5.19,6.44,6.44,0,0,0-1.24.36A114.33,114.33,0,0,0,85.1,58.37Z"/><path class="cls-37" d="M123.27,97.25l5,3.52a3.61,3.61,0,0,0,4.75-.53l1.62-1.79a3.59,3.59,0,0,0,.92-2.67c-.1-1.34-.32-3.68-.79-7.48a3.61,3.61,0,0,0-6-2.2c-2.06,1.9-4.21,4-5.9,5.63A3.6,3.6,0,0,0,123.27,97.25Z"/><path class="cls-37" d="M85.74,96.37,91.07,100a3.42,3.42,0,0,0,5.19-1.78l1.43-4.47a3.4,3.4,0,0,0-2.57-4.39l-5.86-1.2a3.43,3.43,0,0,0-3.8,1.95l-.91,2A3.42,3.42,0,0,0,85.74,96.37Z"/><path d="M67.33,150.27a176.82,176.82,0,0,0,20.19-1.18,8,8,0,0,0,6.93-9.45c-.1-.52-.2-1-.31-1.55-.46-2.23-1-4.54-1.74-6.87-.15-.57-.32-1.1-.46-1.51-.24-.78-.47-1.48-.7-2.13-.15-.46-.31-.91-.47-1.36l-.09-.24c-.18-.49-.36-1-.56-1.48s-.41-1-.62-1.58c-.43-1.09-.92-2.24-1.44-3.4-.25-.55-.5-1.1-.76-1.65l-.7-1.44c-.33-.69-.65-1.31-.95-1.89a2.12,2.12,0,0,0-.11-.21c-.62-1.2-1.28-2.4-2-3.57l-.68-1.15c-.41-.7-.84-1.41-1.31-2.15s-.87-1.36-1.32-2c-.57-.86-1.13-1.67-1.68-2.44-.38-.55-.71-1-1-1.42s-.73-1-1.1-1.45-.62-.8-.94-1.2-.63-.8-1-1.18l-.18-.23c-.77-.92-1.53-1.81-2.28-2.63-.37-.42-.78-.86-1.24-1.35-.23-.26-.48-.52-.74-.78-.59-.61-1.07-1.1-1.54-1.55-.14-.15-.27-.28-.38-.38h0l0,0c-.58-.58-1.23-1.19-2-1.93A73,73,0,0,0,48,76.57a7.86,7.86,0,0,0-3.39-.76,8,8,0,0,0-6.76,3.7,134.07,134.07,0,0,0-8.12,14.4c-6.49,13.57-8.84,27.09-7.61,43.82a8,8,0,0,0,5.56,7,115,115,0,0,0,20.51,4.34A153.93,153.93,0,0,0,67.33,150.27ZM36.94,97.34a126.3,126.3,0,0,1,7.65-13.53A65.1,65.1,0,0,1,60.75,94.75c.62.57,1.24,1.15,1.84,1.74a2.55,2.55,0,0,1,.23.24c.55.53,1.08,1.07,1.6,1.61q.31.31.6.63c.39.41.77.82,1.14,1.24.71.78,1.4,1.58,2.07,2.39h0c.35.42.69.83,1,1.26s.59.74.88,1.12.69.9,1,1.36.61.83.91,1.26c.52.72,1,1.46,1.52,2.2s.84,1.28,1.24,1.92.82,1.33,1.22,2c.2.33.39.65.58,1,.63,1.09,1.24,2.2,1.82,3.31h0c.34.64.66,1.28,1,1.92.22.44.43.88.64,1.32s.47,1,.7,1.53c.46,1,.9,2,1.31,3.08.2.5.4,1,.59,1.5s.4,1.06.59,1.58.29.82.43,1.23c.23.65.44,1.3.64,2,.14.42.27.83.38,1.25q1,3.19,1.61,6.33c.1.47.19.94.28,1.41-1.65.19-3.3.36-4.94.5-.55.05-1.1.08-1.65.12l-3.23.24-1.94.08c-1,0-1.92.1-2.87.12l-2,0c-.86,0-1.73,0-2.58,0h-.1c-.91,0-1.81,0-2.72,0-.65,0-1.31,0-2,0-1,0-1.91-.08-2.86-.13L58,142c-1-.06-2-.15-3.07-.24-.46,0-.94-.06-1.4-.11-1.46-.13-2.91-.29-4.34-.47a106.59,106.59,0,0,1-19.07-4C28.87,120.58,31.45,108.83,36.94,97.34Z"/><path d="M194.9,75.81a7.87,7.87,0,0,0-3.4.76,73,73,0,0,0-18.15,12.27c-.83.76-1.48,1.37-2.06,2l0,0c-.11.11-.24.23-.37.37-.47.46-1,.95-1.54,1.56q-.39.39-.75.78c-.46.49-.87.93-1.24,1.35-.74.82-1.51,1.71-2.27,2.63l-.19.23c-.32.39-.63.77-.95,1.18s-.63.79-.94,1.2l-1.1,1.45c-.31.42-.64.87-1,1.42-.56.77-1.12,1.58-1.67,2.41s-.91,1.39-1.34,2.07-.9,1.47-1.32,2.17c-.21.35-.44.73-.66,1.13-.68,1.17-1.33,2.37-2,3.57l-.11.21c-.3.58-.61,1.2-1,1.89l-.68,1.4c-.28.59-.52,1.14-.77,1.69-.53,1.16-1,2.31-1.45,3.41-.21.52-.42,1-.62,1.57s-.38,1-.56,1.48l-.08.24c-.17.45-.32.9-.48,1.36-.23.65-.46,1.35-.7,2.13-.13.41-.3.94-.46,1.51-.69,2.33-1.28,4.64-1.74,6.87-.11.52-.21,1-.31,1.54a8,8,0,0,0,6.94,9.46,176.65,176.65,0,0,0,20.18,1.18,154.49,154.49,0,0,0,19.17-1.16,114.9,114.9,0,0,0,20.49-4.34,8,8,0,0,0,5.56-7c1.23-16.73-1.12-30.25-7.61-43.84a134.18,134.18,0,0,0-8.12-14.38A8,8,0,0,0,194.9,75.81Zm7.65,21.53c5.49,11.49,8.07,23.24,6.85,39.8a106.59,106.59,0,0,1-19.07,4c-1.42.18-2.87.34-4.34.47-.5.05-1,.08-1.52.12-1,.08-1.95.17-2.95.23l-1.78.08c-.93.05-1.85.1-2.8.13-.65,0-1.31,0-2,0-.91,0-1.81,0-2.72,0h-.1c-.85,0-1.71,0-2.57,0l-2.06,0c-.93,0-1.87-.07-2.81-.12l-2-.08-3.21-.24-1.67-.12c-1.64-.14-3.28-.31-4.94-.5.09-.47.18-.94.28-1.41q.65-3.14,1.61-6.33c.11-.42.24-.83.38-1.25.2-.65.41-1.3.64-2,.14-.41.28-.82.43-1.23s.38-1,.59-1.58.39-1,.59-1.5c.41-1,.85-2.06,1.31-3.08.23-.51.46-1,.7-1.53s.42-.88.64-1.32c.31-.64.63-1.28,1-1.92h0c.58-1.11,1.19-2.22,1.82-3.31.19-.34.38-.66.58-1,.4-.67.8-1.34,1.22-2s.82-1.28,1.24-1.92,1-1.48,1.52-2.2c.3-.43.6-.85.91-1.26s.68-.91,1-1.36.58-.75.88-1.12.67-.84,1-1.26h0c.67-.81,1.36-1.61,2.07-2.39.37-.42.75-.83,1.14-1.24q.28-.31.6-.63c.52-.54,1.05-1.08,1.6-1.61a2.55,2.55,0,0,1,.23-.24c.6-.59,1.22-1.17,1.84-1.74A65.1,65.1,0,0,1,194.9,83.81,126.3,126.3,0,0,1,202.55,97.34Z"/></g></g></svg>